<svg height="504pt" viewBox="-109 0 504 504" width="504pt" xmlns="http://www.w3.org/2000/svg"><path d="m272.441406 500h-259.089844c-5.164062 0-9.351562-4.1875-9.351562-9.351562v-12.996094c0-5.164063 4.1875-9.351563 9.351562-9.351563h259.089844c5.164063 0 9.351563 4.1875 9.351563 9.351563v12.996094c0 5.164062-4.1875 9.351562-9.351563 9.351562zm0 0" fill="#f4efed"/><path d="m272.441406 468.300781h-18.703125c5.164063 0 9.351563 4.1875 9.351563 9.351563v12.996094c0 5.164062-4.1875 9.351562-9.351563 9.351562h18.703125c5.164063 0 9.351563-4.1875 9.351563-9.351562v-12.996094c0-5.164063-4.1875-9.351563-9.351563-9.351563zm0 0" fill="#d6d1cf"/><path d="m13.351562 500h18.703126c-5.164063 0-9.351563-4.1875-9.351563-9.351562v-12.996094c0-5.164063 4.183594-9.351563 9.351563-9.351563h-18.703126c-5.164062 0-9.351562 4.1875-9.351562 9.351563v12.996094c0 5.164062 4.1875 9.351562 9.351562 9.351562zm0 0" fill="#fff"/><path d="m69.265625 98.191406h-5.257813c-13.589843 0-24.605468 11.015625-24.605468 24.605469s11.015625 24.605469 24.605468 24.605469h5.257813zm0 0" fill="#ffbd8e"/><path d="m221.785156 98.191406h-5.257812v49.210938h5.257812c13.589844 0 24.605469-11.015625 24.605469-24.605469s-11.015625-24.605469-24.605469-24.605469zm0 0" fill="#e18152"/><path d="m238.605469 243.371094h-61.75c.035156-.632813.097656-1.261719.097656-1.90625v-62.140625h-68.113281v62.140625c0 .644531.0625 1.269531.097656 1.90625h-61.75c-23.851562 0-43.1875 19.332031-43.1875 43.183594v88.484374h277.792969v-88.484374c0-23.847657-19.335938-43.183594-43.1875-43.183594zm0 0" fill="#7bac51"/><path d="m176.855469 243.371094h25.40625l21.195312 48.253906h-27.101562l20.171875 23.558594-73.632813 59.855468 32.664063-74.226562zm0 0" fill="#5d8e33"/><path d="m175.558594 300.8125-32.664063 74.226562-32.664062-74.226562 32.664062-33.976562zm0 0" fill="#d6d1cf"/><path d="m142.894531 266.835938-32.664062 33.976562-1.292969-57.441406zm0 0" fill="#f4efed"/><path d="m142.894531 266.835938 32.664063 33.976562 1.296875-57.441406zm0 0" fill="#f4efed"/><path d="m108.9375 243.371094h-25.40625l-21.195312 48.253906h27.101562l-20.171875 23.558594 73.628906 59.855468-32.664062-74.226562zm0 0" fill="#5d8e33"/><path d="m108.9375 243.371094 33.957031 23.464844 33.960938-23.464844.097656-64.046875h-68.113281zm0 0" fill="#e18152"/><path d="m238.605469 243.371094h-15.148438c23.847657 0 43.183594 19.335937 43.183594 43.1875v88.480468h15.152344v-88.480468c0-23.851563-19.335938-43.1875-43.1875-43.1875zm0 0" fill="#5d8e33"/><path d="m47.1875 243.371094h15.148438c-23.851563 0-43.1875 19.335937-43.1875 43.1875v88.480468h-15.148438v-88.480468c0-23.851563 19.335938-43.1875 43.1875-43.1875zm0 0" fill="#99ca6f"/><path d="m281.792969 379.039062h-277.792969c-2.207031 0-4-1.792968-4-4v-88.480468c0-26.019532 21.164062-47.1875 47.1875-47.1875h57.652344v-60.046875c0-2.207031 1.792968-4 4-4h68.113281c2.207031 0 4 1.792969 4 4v60.046875h57.65625c26.015625 0 47.183594 21.167968 47.183594 47.1875v88.480468c0 2.207032-1.789063 4-4 4zm-273.792969-8h269.792969v-84.480468c0-21.609375-17.578125-39.1875-39.1875-39.1875h-61.75c-1.101563 0-2.15625-.453125-2.910157-1.253906-.757812-.800782-1.148437-1.878907-1.085937-2.976563l.039063-.574219c.027343-.363281.054687-.726562.054687-1.101562v-58.140625h-60.113281v58.140625c0 .371094.027344.734375.050781 1.101562l.039063.570313c.0625 1.101562-.328126 2.175781-1.082032 2.980469-.757812.796874-1.808594 1.253906-2.910156 1.253906h-61.75c-21.609375 0-39.1875 17.578125-39.1875 39.183594zm0 0" fill="#690589"/><path d="m142.894531 379.039062c-.851562 0-1.707031-.269531-2.421875-.820312-1.46875-1.117188-1.980468-3.097656-1.238281-4.789062l32.34375-73.5 1.28125-56.648438c.046875-2.175781 1.824219-3.910156 3.996094-3.910156h25.40625c1.589843 0 3.023437.9375 3.664062 2.390625l21.195313 48.253906c.539062 1.234375.425781 2.664063-.3125 3.792969-.738282 1.132812-2 1.8125-3.351563 1.8125h-18.410156l14.519531 16.957031c.703125.820313 1.042969 1.890625.949219 2.964844-.101563 1.074219-.625 2.0625-1.460937 2.742187l-73.628907 59.855469c-.738281.597656-1.636719.898437-2.53125.898437zm37.871094-131.667968-1.207031 53.535156c-.011719.523438-.125 1.042969-.335938 1.523438l-25.992187 59.054687 57.589843-46.8125-17.503906-20.445313c-1.015625-1.1875-1.246094-2.855468-.59375-4.273437s2.070313-2.328125 3.632813-2.328125h20.972656l-17.679687-40.253906zm-5.207031 53.441406h.019531zm0 0" fill="#690589"/><path d="m142.894531 379.039062c-.894531 0-1.789062-.300781-2.523437-.894531l-73.632813-59.855469c-.835937-.679687-1.363281-1.671874-1.457031-2.746093-.097656-1.074219.242188-2.140625.945312-2.957031l14.519532-16.960938h-18.410156c-1.351563 0-2.609376-.679688-3.351563-1.8125-.738281-1.128906-.855469-2.558594-.308594-3.792969l21.195313-48.253906c.636718-1.453125 2.074218-2.390625 3.660156-2.390625h25.40625c2.175781 0 3.949219 1.734375 4 3.910156l1.277344 56.648438 32.34375 73.5c.746094 1.691406.234375 3.671875-1.234375 4.789062-.71875.542969-1.574219.816406-2.429688.816406zm-67.921875-64.371093 57.585938 46.8125-25.988282-59.054688c-.210937-.480469-.328124-.996093-.339843-1.523437l-1.203125-53.53125h-18.882813l-17.683593 40.25h20.976562c1.558594 0 2.976562.910156 3.632812 2.328125.652344 1.417969.417969 3.089843-.597656 4.273437zm0 0" fill="#690589"/><path d="m142.894531 270.835938c-.792969 0-1.589843-.238282-2.273437-.710938l-33.957032-23.460938c-1.078124-.746093-1.722656-1.972656-1.726562-3.285156l-.097656-64.046875c0-1.0625.417968-2.082031 1.167968-2.832031.75-.753906 1.769532-1.175781 2.832032-1.175781h68.113281c1.0625 0 2.082031.421875 2.832031 1.175781.75.75 1.171875 1.769531 1.167969 2.832031l-.097656 64.046875c0 1.3125-.644531 2.539063-1.726563 3.285156l-33.957031 23.460938c-.6875.472656-1.480469.710938-2.277344.710938zm-29.960937-29.566407 29.960937 20.699219 29.964844-20.699219.085937-57.945312h-60.101562zm0 0" fill="#690589"/><path d="m142.894531 223.277344c-40.664062 0-73.628906-33.394532-73.628906-74.589844v-51.636719c0-41.191406 32.964844-74.585937 73.628906-74.585937 40.667969 0 73.632813 33.394531 73.632813 74.585937v51.640625c0 41.191406-32.964844 74.585938-73.632813 74.585938zm0 0" fill="#ff9f70"/><path d="m142.894531 22.464844c-2.832031 0-5.617187.175781-8.367187.492187 36.726562 4.210938 65.265625 35.769531 65.265625 74.09375v51.640625c0 38.324219-28.539063 69.882813-65.265625 74.09375 2.75.316406 5.535156.492188 8.367187.492188 40.667969 0 73.632813-33.394532 73.632813-74.585938v-51.640625c0-41.191406-32.964844-74.585937-73.632813-74.585937zm0 0" fill="#e18152"/><path d="m142.894531 22.464844c2.832031 0 5.621094.175781 8.371094.492187-36.726563 4.210938-65.265625 35.769531-65.265625 74.09375v51.640625c0 38.324219 28.539062 69.882813 65.265625 74.09375-2.75.316406-5.539063.492188-8.371094.492188-40.664062 0-73.628906-33.394532-73.628906-74.585938v-51.640625c0-41.191406 32.964844-74.585937 73.628906-74.585937zm0 0" fill="#ffbd8e"/><path d="m142.894531 227.277344c-42.804687 0-77.628906-35.253906-77.628906-78.589844v-51.636719c0-43.332031 34.824219-78.585937 77.628906-78.585937 42.808594 0 77.632813 35.253906 77.632813 78.585937v51.636719c0 43.335938-34.824219 78.589844-77.632813 78.589844zm0-200.8125c-38.394531 0-69.628906 31.664062-69.628906 70.585937v51.636719c0 38.921875 31.234375 70.589844 69.628906 70.589844s69.632813-31.667969 69.632813-70.589844v-51.636719c0-38.921875-31.238282-70.585937-69.632813-70.585937zm0 0" fill="#690589"/><path d="m110.230469 304.8125c-.488281 0-.980469-.085938-1.453125-.273438-1.503906-.585937-2.507813-2.019531-2.546875-3.636718l-1.292969-57.441406c-.035156-1.503907.777344-2.898438 2.101562-3.613282 1.324219-.710937 2.9375-.625 4.171876.230469l33.957031 23.460937c.964843.667969 1.589843 1.726563 1.707031 2.890626.117188 1.167968-.28125 2.328124-1.097656 3.171874l-32.664063 33.984376c-.765625.800781-1.816406 1.226562-2.882812 1.226562zm2.882812-53.695312.898438 39.992187 22.742187-23.65625zm0 0" fill="#690589"/><path d="m175.558594 304.8125c-1.066406 0-2.113282-.425781-2.878906-1.226562l-32.667969-33.980469c-.8125-.847657-1.214844-2.007813-1.097657-3.171875.121094-1.167969.742188-2.226563 1.707032-2.890625l33.957031-23.464844c1.238281-.851563 2.847656-.941406 4.175781-.226563 1.320313.710938 2.132813 2.105469 2.097656 3.609376l-1.292968 57.445312c-.035156 1.617188-1.042969 3.050781-2.542969 3.636719-.476563.183593-.96875.269531-1.457031.269531zm-26.519532-37.359375 22.738282 23.65625.902344-39.992187zm0 0" fill="#690589"/><path d="m162.164062 286.878906-19.269531-20.042968-19.269531 20.042968 10.902344 13.933594-8.613282 35.644531 16.980469 38.582031 16.980469-38.582031-8.609375-35.644531zm0 0" fill="#ff4397"/><path d="m142.894531 379.039062c-1.585937 0-3.019531-.9375-3.660156-2.386718l-16.980469-38.582032c-.355468-.800781-.433594-1.699218-.226562-2.550781l8.160156-33.761719-9.710938-12.410156c-1.230468-1.570312-1.113281-3.800781.265626-5.238281l19.269531-20.046875c1.507812-1.570312 4.257812-1.570312 5.765625 0l19.269531 20.046875c1.382813 1.4375 1.496094 3.667969.269531 5.238281l-9.710937 12.410156 8.160156 33.761719c.207031.851563.125 1.75-.226563 2.550781l-16.980468 38.582032c-.640625 1.449218-2.078125 2.386718-3.664063 2.386718zm-12.773437-42.953124 12.773437 29.023437 12.777344-29.023437-8.296875-34.332032c-.285156-1.1875-.015625-2.441406.738281-3.402344l8.765625-11.203124-13.980468-14.542969-13.980469 14.542969 8.765625 11.203124c.75.960938 1.023437 2.214844.738281 3.402344zm0 0" fill="#690589"/><path d="m69.265625 151.402344h-5.257813c-15.773437 0-28.605468-12.832032-28.605468-28.605469 0-15.769531 12.832031-28.605469 28.605468-28.605469h5.257813c2.207031 0 4 1.792969 4 4v49.210938c0 2.210937-1.792969 4-4 4zm-5.257813-49.210938c-11.363281 0-20.605468 9.242188-20.605468 20.605469 0 11.359375 9.242187 20.605469 20.605468 20.605469h1.257813v-41.210938zm0 0" fill="#690589"/><path d="m221.785156 151.402344h-5.257812c-2.210938 0-4-1.789063-4-4v-49.210938c0-2.210937 1.789062-4 4-4h5.257812c15.773438 0 28.605469 12.832032 28.605469 28.605469 0 15.769531-12.832031 28.605469-28.605469 28.605469zm-1.257812-8h1.257812c11.359375 0 20.605469-9.242188 20.605469-20.605469 0-11.359375-9.246094-20.605469-20.605469-20.605469h-1.257812zm0 0" fill="#690589"/><path d="m179.140625 25.207031c26.039063 0 47.148437 21.105469 47.148437 47.144531v48.644532c-26.039062 0-47.148437-21.105469-47.148437-47.144532zm0 0" fill="#fcc24c"/><path d="m179.140625 25.207031v2.652344c18.375 6.4375 31.554687 23.921875 31.554687 44.492187v45.996094c4.878907 1.710938 10.125 2.648438 15.59375 2.648438v-48.644532c0-26.039062-21.109374-47.144531-47.148437-47.144531zm0 0" fill="#dea42e"/><path d="m226.289062 124.996094c-28.203124 0-51.148437-22.941406-51.148437-51.144532v-48.644531c0-2.210937 1.792969-4 4-4 28.207031 0 51.148437 22.941407 51.148437 51.144531v48.644532c0 2.210937-1.792968 4-4 4zm-43.148437-95.609375v44.464843c0 22.441407 17.226563 40.9375 39.148437 42.960938v-44.460938c0-22.441406-17.226562-40.9375-39.148437-42.964843zm0 0" fill="#690589"/><path d="m148.230469 4h-43.320313c-26.757812 0-48.445312 21.691406-48.445312 48.449219v46.886719h74.230468c26.757813 0 48.445313-21.691407 48.445313-48.449219v-15.976563c0-17.070312-13.839844-30.910156-30.910156-30.910156zm0 0" fill="#fcc24c"/><path d="m120.507812 4h-15.597656c-26.757812 0-48.445312 21.691406-48.445312 48.449219v46.886719h15.59375v-46.886719c0-26.757813 21.691406-48.449219 48.449218-48.449219zm0 0" fill="#fce06a"/><path d="m130.691406 103.339844h-74.226562c-2.207032 0-4-1.792969-4-4v-46.890625c0-28.921875 23.527344-52.449219 52.445312-52.449219h43.320313c19.25 0 34.910156 15.660156 34.910156 34.910156v15.980469c0 28.917969-23.527344 52.449219-52.449219 52.449219zm-70.226562-8h70.230468c24.507813 0 44.449219-19.941406 44.449219-44.449219v-15.980469c0-14.839844-12.074219-26.910156-26.910156-26.910156h-43.320313c-24.507812 0-44.449218 19.941406-44.449218 44.449219zm0 0" fill="#690589"/><path d="m272.441406 309.207031h-259.089844c-5.164062 0-9.351562 4.183594-9.351562 9.351563v140.394531c0 5.164063 4.1875 9.351563 9.351562 9.351563h259.089844c5.164063 0 9.351563-4.1875 9.351563-9.351563v-140.394531c0-5.167969-4.1875-9.351563-9.351563-9.351563zm0 0" fill="#f4efed"/><path d="m272.441406 309.207031h-18.703125c5.164063 0 9.351563 4.183594 9.351563 9.351563v140.394531c0 5.164063-4.1875 9.351563-9.351563 9.351563h18.703125c5.164063 0 9.351563-4.1875 9.351563-9.351563v-140.394531c0-5.167969-4.1875-9.351563-9.351563-9.351563zm0 0" fill="#d6d1cf"/><path d="m13.351562 468.300781h18.703126c-5.164063 0-9.351563-4.183593-9.351563-9.351562v-140.394531c0-5.164063 4.183594-9.351563 9.351563-9.351563h-18.703126c-5.164062 0-9.351562 4.1875-9.351562 9.351563v140.394531c0 5.167969 4.1875 9.351562 9.351562 9.351562zm0 0" fill="#fff"/><g fill="#690589"><path d="m17.988281 354.933594c-2.207031 0-4-1.792969-4-4v-24c0-2.207032 1.792969-4 4-4 2.210938 0 4 1.792968 4 4v24c0 2.207031-1.789062 4-4 4zm0 0"/><path d="m272.441406 472.300781h-259.089844c-7.363281 0-13.351562-5.988281-13.351562-13.351562v-140.394531c0-7.359376 5.988281-13.351563 13.351562-13.351563h259.089844c7.359375 0 13.351563 5.992187 13.351563 13.351563v140.394531c0 7.363281-5.992188 13.351562-13.351563 13.351562zm-259.089844-159.09375c-2.953124 0-5.351562 2.398438-5.351562 5.351563v140.394531c0 2.949219 2.398438 5.351563 5.351562 5.351563h259.089844c2.949219 0 5.351563-2.402344 5.351563-5.351563v-140.394531c0-2.953125-2.402344-5.351563-5.351563-5.351563zm0 0"/><path d="m118.890625 405.570312c1.703125 1.769532 1.703125 4.417969 0 6.121094-.882813.816406-1.902344 1.222656-2.992187 1.222656-1.15625 0-2.242188-.40625-3.125-1.222656l-19.109376-19.378906c-.203124-.070312-.269531-.203125-.339843-.410156-.066407-.066406-.203125-.132813-.203125-.132813-.136719-.207031-.136719-.339843-.203125-.546875-.136719-.066406-.203125-.203125-.203125-.269531-.070313-.136719-.070313-.339844-.136719-.410156 0-.203125-.136719-.269531-.136719-.339844 0-.203125 0-.339844 0-.476563 0-.132812-.066406-.203124-.066406-.40625 0-.066406.066406-.273437.066406-.339843 0-.136719 0-.339844 0-.476563 0-.136718.136719-.203125.136719-.273437.066406-.203125.066406-.339844.136719-.542969 0-.066406.066406-.066406.066406-.136719.136719-.203125.203125-.476562.339844-.609375 0 0 0-.136718.136718-.136718.066407-.136719.203126-.339844.40625-.476563l19.109376-19.378906c1.699218-1.632813 4.488281-1.632813 6.117187 0 1.703125 1.699219 1.703125 4.421875 0 6.121093l-16.113281 16.25zm0 0"/><path d="m131.132812 407.746094 16.660157-39.640625c.816406-1.902344 2.992187-2.789063 4.960937-1.972657 1.835938.75 2.71875 2.992188 1.902344 4.828126l-16.660156 39.710937c-.609375 1.425781-2.039063 2.242187-3.464844 2.242187-.410156 0-.953125-.066406-1.359375-.273437-1.972656-.746094-2.855469-2.992187-2.039063-4.894531zm0 0"/><path d="m192.671875 391.765625s0 .070313-.070313.070313c-.136718.132812-.273437.339843-.476562.472656l-19.105469 19.378906c-.816406.816406-1.972656 1.222656-3.058593 1.222656-1.15625 0-2.175782-.40625-3.0625-1.222656-1.699219-1.699219-1.699219-4.351562 0-6.121094l16.117187-16.25-16.117187-16.25c-1.699219-1.699218-1.699219-4.421875 0-6.121094 1.632812-1.632812 4.421874-1.632812 6.121093 0l19.105469 19.378907c.203125.136719.339844.339843.476562.476562.070313 0 .070313.136719.070313.136719.132813.269531.269531.40625.339844.609375 0 .070313.066406.070313.066406.136719.066406.203125.066406.339844.203125.613281 0 .066406.070312.066406.070312.203125v.476562c0 .066407.066407.269532.066407.339844 0 .066406-.066407.273438-.066407.339844v.542969c0 .070312-.070312.070312-.070312.136719-.136719.273437-.136719.476562-.203125.613281 0 .066406-.066406.066406-.066406.203125-.070313.136718-.207031.339844-.339844.613281zm0 0"/><path d="m272.441406 504h-259.089844c-7.363281 0-13.351562-5.988281-13.351562-13.351562v-12.996094c0-7.359375 5.988281-13.351563 13.351562-13.351563h259.089844c7.359375 0 13.351563 5.992188 13.351563 13.351563v12.996094c0 7.363281-5.992188 13.351562-13.351563 13.351562zm-259.089844-31.699219c-2.953124 0-5.351562 2.402344-5.351562 5.351563v12.996094c0 2.953124 2.398438 5.351562 5.351562 5.351562h259.089844c2.949219 0 5.351563-2.398438 5.351563-5.351562v-12.996094c0-2.949219-2.402344-5.351563-5.351563-5.351563zm0 0"/></g></svg>