<?xml version="1.0" encoding="UTF-8" standalone="no"?>
<svg
   xmlns:dc="http://purl.org/dc/elements/1.1/"
   xmlns:cc="http://creativecommons.org/ns#"
   xmlns:rdf="http://www.w3.org/1999/02/22-rdf-syntax-ns#"
   xmlns:svg="http://www.w3.org/2000/svg"
   xmlns="http://www.w3.org/2000/svg"
   xmlns:sodipodi="http://sodipodi.sourceforge.net/DTD/sodipodi-0.dtd"
   xmlns:inkscape="http://www.inkscape.org/namespaces/inkscape"
   width="473"
   height="612"
   overflow="hidden"
   version="1.1"
   id="svg937"
   sodipodi:docname="Register_cut.svg"
   inkscape:version="1.0.2 (e86c870879, 2021-01-15, custom)">
  <metadata
     id="metadata941">
    <rdf:RDF>
      <cc:Work
         rdf:about="">
        <dc:format>image/svg+xml</dc:format>
        <dc:type
           rdf:resource="http://purl.org/dc/dcmitype/StillImage" />
        <dc:title />
      </cc:Work>
    </rdf:RDF>
  </metadata>
  <sodipodi:namedview
     pagecolor="#ffffff"
     bordercolor="#666666"
     borderopacity="1"
     objecttolerance="10"
     gridtolerance="10"
     guidetolerance="10"
     inkscape:pageopacity="0"
     inkscape:pageshadow="2"
     inkscape:window-width="2560"
     inkscape:window-height="1017"
     id="namedview939"
     showgrid="false"
     inkscape:zoom="1.3888889"
     inkscape:cx="236.5"
     inkscape:cy="133.2"
     inkscape:window-x="-8"
     inkscape:window-y="-8"
     inkscape:window-maximized="1"
     inkscape:current-layer="svg937"
     inkscape:document-rotation="0" />
  <defs
     id="defs919">
    <clipPath
       id="clip0">
      <rect
         x="478"
         y="31"
         width="473"
         height="612"
         id="rect916" />
    </clipPath>
    <clipPath
       clipPathUnits="userSpaceOnUse"
       id="clipPath1510">
      <rect
         style="opacity:0.5;stroke-width:0.997241"
         id="rect1512"
         width="433.20004"
         height="540.71997"
         x="518.56"
         y="101.56" />
    </clipPath>
  </defs>
  <g
     clip-path="url(#clipPath1510)"
     transform="matrix(1.0949033,0,0,1.1283291,-568.25307,-113.11785)"
     id="g935">
    <path
       d="m 504,44 c 0,7.1798 -5.596,13.0001 -12.5,13.0001 -6.904,0 -12.5,-5.8203 -12.5,-13.0001 0,-7.1797 5.596,-13 12.5,-13 6.904,0 12.5,5.8203 12.5,13 z"
       fill="#ffffff"
       fill-rule="evenodd"
       id="path921" />
    <path
       d="m 903.471,600.986 h -338 c -4.692,-0.006 -8.494,-3.808 -8.5,-8.5 v -405 c 0.006,-4.692 3.808,-8.495 8.5,-8.5 h 338 c 4.693,0.005 8.495,3.808 8.5,8.5 v 405 c -0.005,4.692 -3.808,8.494 -8.5,8.5 z"
       fill="#e6e6e6"
       fill-rule="evenodd"
       id="path923" />
    <path
       d="m 755,124 c 0,11.046 -8.954,20 -20,20 -11.046,0 -20,-8.954 -20,-20 0,-11.046 8.954,-20 20,-20 11.046,0 20,8.954 20,20 z"
       fill="#2073d9"
       fill-rule="evenodd"
       id="path925" />
    <path
       d="m 747,124 c 0,6.627 -5.596,12 -12.5,12 -6.904,0 -12.5,-5.373 -12.5,-12 0,-6.627 5.596,-12 12.5,-12 6.904,0 12.5,5.373 12.5,12 z"
       fill="#ffffff"
       fill-rule="evenodd"
       id="path927" />
    <path
       d="m 826.971,202.986 h -184 c -4.968,-0.006 -8.994,-4.032 -9,-9 v -44 c 0.006,-4.968 4.032,-8.995 9,-9 h 184 c 4.969,0.005 8.995,4.032 9,9 v 44 c -0.005,4.968 -4.031,8.994 -9,9 z"
       fill="#2073d9"
       fill-rule="evenodd"
       id="path929" />
    <path
       d="m 521.5,176.006 c 0,-12.982 10.524,-23.506 23.506,-23.506 h 380.989 c 12.981,0 23.505,10.524 23.505,23.506 v 441.988 c 0,12.982 -10.524,23.506 -23.505,23.506 H 545.006 c -12.982,0 -23.506,-10.524 -23.506,-23.506 z"
       stroke="#000000"
       stroke-width="3"
       stroke-miterlimit="8"
       fill="none"
       fill-rule="evenodd"
       id="path931" />
    <path
       d="m 826.971,203.986 h -184 c -4.968,-0.006 -8.994,-4.032 -9,-9 v -44 c 0.006,-4.968 4.032,-8.995 9,-9 h 184 c 4.969,0.005 8.995,4.032 9,9 v 44 c -0.005,4.968 -4.031,8.994 -9,9 z"
       fill="#2073d9"
       fill-rule="evenodd"
       id="path933" />
  </g>
</svg>
