<svg width="750" height="469" xmlns="http://www.w3.org/2000/svg" xmlns:xlink="http://www.w3.org/1999/xlink" overflow="hidden"><defs><clipPath id="clip0"><rect x="282" y="180" width="750" height="469"/></clipPath></defs><g clip-path="url(#clip0)" transform="translate(-282 -180)"><text font-family="Harlow Solid,Harlow Solid_MSFontService,sans-serif" font-style="italic" font-weight="400" font-stretch="semi-expanded" font-size="48" transform="translate(369.459 311)">TeachYourBest</text><path d="M756.946 434.978 299.015 434.978C290.163 434.968 282.99 427.787 282.98 418.926L282.98 197.03C282.99 188.17 290.163 180.989 299.015 180.978L756.946 180.978C765.797 180.989 772.97 188.17 772.981 197.03L772.981 418.926C772.97 427.787 765.797 434.968 756.946 434.978ZM299.015 182.867C291.205 182.875 284.875 189.212 284.867 197.03L284.867 418.926C284.875 426.745 291.205 433.081 299.015 433.09L756.946 433.09C764.756 433.081 771.086 426.745 771.094 418.926L771.094 197.03C771.086 189.212 764.756 182.875 756.946 182.867Z" fill="#3F3D56" fill-rule="evenodd"/><path d="M715.705 216.977 340.242 216.977C339.542 216.977 338.974 216.529 338.974 215.977 338.974 215.425 339.542 214.977 340.242 214.977L715.705 214.977C716.406 214.977 716.974 215.425 716.974 215.977 716.974 216.529 716.406 216.977 715.705 216.977Z" fill="#CCCCCC" fill-rule="evenodd"/><path d="M715.705 257.977 340.242 257.977C339.542 257.977 338.974 257.529 338.974 256.977 338.974 256.425 339.542 255.977 340.242 255.977L715.705 255.977C716.406 255.977 716.974 256.425 716.974 256.977 716.974 257.529 716.406 257.977 715.705 257.977Z" fill="#CCCCCC" fill-rule="evenodd"/><path d="M714.705 353.977 339.242 353.977C338.542 353.977 337.974 353.529 337.974 352.977 337.974 352.425 338.542 351.977 339.242 351.977L714.705 351.977C715.406 351.977 715.974 352.425 715.974 352.977 715.974 353.529 715.406 353.977 714.705 353.977Z" fill="#CCCCCC" fill-rule="evenodd"/><path d="M875.495 643.503C867.001 636.296 861.842 624.908 863.195 613.823 864.548 602.738 872.928 592.547 883.798 590.194 894.667 587.84 907.058 594.356 910.36 605.02 912.178 584.46 914.271 563.037 925.155 545.528 935.01 529.674 952.08 518.329 970.579 516.3 989.078 514.27 1008.56 521.936 1020.09 536.6 1031.63 551.265 1034.45 572.585 1026.38 589.422 1020.42 601.824 1009.46 611.055 997.965 618.564 960.835 642.625 916.303 652.41 872.561 646.117Z" fill="#F2F2F2" fill-rule="evenodd"/><path d="M1001.92 522.4C986.674 534.862 972.685 548.8 960.158 564.012 940.553 587.737 924.688 614.337 913.116 642.886 912.269 644.969 915.64 645.875 916.477 643.815 935.41 597.418 965.635 556.524 1004.39 524.873 1006.13 523.451 1003.65 520.989 1001.92 522.4Z" fill="#FFFFFF" fill-rule="evenodd"/><path d="M785.523 382.978C784.451 382.975 783.382 382.867 782.331 382.656L782.331 382.656C782.139 382.619 781.947 382.577 781.755 382.533L550.89 328.684C548.383 328.099 546.716 326.518 547.015 325.007 547.272 324.101 548.014 323.414 548.937 323.23 550.052 322.922 551.225 322.897 552.352 323.153L784.65 371.754C789.881 372.848 793.512 376.064 792.917 379.074 792.606 380.65 791.22 381.872 789.017 382.514 787.88 382.832 786.703 382.988 785.523 382.978Z" fill="#3F3D56" fill-rule="evenodd"/><path d="M736.725 375.689C741.227 378.303 747.022 376.817 749.668 372.369 749.95 371.896 750.19 371.398 750.383 370.882L783.981 371.574 774.673 356.979 744.195 358.56C739.162 357.083 733.87 359.917 732.375 364.889 731.124 369.049 732.923 373.514 736.725 375.689Z" fill="#FFB8B8" fill-rule="evenodd"/><path d="M751.157 370.784 750.981 360.403C750.954 358.182 752.623 356.309 754.825 356.084L815.517 350.212 866.083 333.586C872.443 331.495 879.289 334.969 881.374 341.346 883.459 347.724 879.994 354.588 873.635 356.679 873.523 356.716 873.411 356.752 873.299 356.785L817.329 373.402 755.516 374.977C753.596 375.023 751.882 373.776 751.331 371.93 751.221 371.558 751.162 371.172 751.157 370.784Z" fill="#3F3D56" fill-rule="evenodd"/><path d="M840.998 637 829.479 636.999 824 592 841 592.001 840.998 637Z" fill="#FFB8B8" fill-rule="evenodd"/><path d="M843.981 647.978 806.981 647.976 806.981 647.504C806.981 639.482 813.428 632.978 821.382 632.978 821.382 632.978 821.382 632.978 821.383 632.978L821.383 632.978 843.981 632.979Z" fill="#2F2E41" fill-rule="evenodd"/><path d="M874.998 637 863.479 636.999 858 592 875 592.001 874.998 637Z" fill="#FFB8B8" fill-rule="evenodd"/><path d="M877.981 647.978 840.981 647.976 840.981 647.504C840.981 639.482 847.428 632.978 855.382 632.978 855.382 632.978 855.382 632.978 855.383 632.978L855.383 632.978 877.981 632.979Z" fill="#2F2E41" fill-rule="evenodd"/><path d="M882.98 457.024 880.211 620.97C880.176 623.055 878.453 624.716 876.364 624.681 876.271 624.679 876.178 624.675 876.085 624.666L862.515 623.435C860.677 623.268 859.227 621.803 859.085 619.967L851.14 517.702C851.099 517.182 850.644 516.794 850.124 516.834 849.644 516.872 849.27 517.26 849.252 517.74L845.281 622.345C845.203 624.374 843.533 625.978 841.499 625.978L826.945 625.978C824.945 625.978 823.29 624.425 823.168 622.433L812.98 456.08 873.521 440.978Z" fill="#2F2E41" fill-rule="evenodd"/><path d="M862 279.5C862 292.479 851.703 303 839 303 826.297 303 816 292.479 816 279.5 816 266.521 826.297 256 839 256 851.703 256 862 266.521 862 279.5Z" fill="#FFB8B8" fill-rule="evenodd"/><path d="M810.845 461.776C810.031 460.992 809.566 459.915 809.553 458.786L807.984 346.871C807.791 335.191 815.166 324.718 826.244 320.941 828.423 311.077 840.02 309.842 846.781 309.989 850.206 310.063 853.379 311.799 855.283 314.641L860.129 321.895 870.811 328.142C880.955 334.05 886.111 345.819 883.567 357.261L881.923 364.725C876.131 391.143 876.682 418.554 883.531 444.719L886.84 457.309C887.437 459.58 886.076 461.905 883.8 462.5 883.341 462.621 882.864 462.663 882.391 462.627L878.548 462.332C876.488 462.176 874.838 460.567 874.634 458.516L873.998 452.169C873.972 451.91 873.74 451.721 873.48 451.746 873.255 451.769 873.078 451.946 873.056 452.169L872.44 458.314C872.225 460.463 870.43 462.11 868.266 462.143L813.88 462.977C813.857 462.977 813.835 462.978 813.812 462.978 812.704 462.981 811.638 462.549 810.845 461.776Z" fill="#3F3D56" fill-rule="evenodd"/><path d="M841.071 292.576C841.166 295.854 843.439 297.751 846.23 299.467 849.022 301.184 852.285 301.928 855.482 302.647 856.862 303.38 858.574 302.855 859.306 301.474 859.521 301.072 859.634 300.625 859.637 300.168L862.569 289.006C863.607 285.441 864.361 281.799 864.826 278.114 865.533 271.025 863.854 263.399 858.91 258.273 853.967 253.146 845.393 251.326 839.468 255.275 832.438 246.288 800.302 266.145 808.229 272.395 809.639 273.506 811.795 272.099 813.585 271.963 815.375 271.827 817.381 272.142 818.518 273.533 820.003 275.349 819.356 278.056 819.969 280.322 821.029 283.658 824.59 285.503 827.923 284.443 827.939 284.437 827.955 284.432 827.971 284.427 829.451 283.697 830.843 282.801 832.121 281.757 833.495 280.841 835.229 280.165 836.775 280.742 838.813 281.503 839.536 284 839.72 286.168 840.03 288.331 840.482 290.472 841.071 292.576Z" fill="#2F2E41" fill-rule="evenodd"/><path d="M1013.04 647.988 652.926 647.988C652.404 647.988 651.98 647.764 651.98 647.488 651.98 647.212 652.404 646.988 652.926 646.988L1013.04 646.988C1013.56 646.988 1013.98 647.212 1013.98 647.488 1013.98 647.764 1013.56 647.988 1013.04 647.988Z" fill="#3F3D56" fill-rule="evenodd"/><path d="M835.387 355 831.645 401.06 812 449 841 402 835.387 355Z" fill="#000000" fill-rule="evenodd" fill-opacity="0.2"/><path d="M807.277 466.836C811.294 463.552 811.936 457.574 808.711 453.484 808.366 453.048 807.985 452.644 807.572 452.275L819.981 420.978 803.097 424.45 793.902 453.638C790.761 457.832 791.554 463.824 795.673 467.022 799.118 469.698 803.915 469.621 807.277 466.836Z" fill="#FFB8B8" fill-rule="evenodd"/><path d="M806.561 453.725 796.796 450.226C794.71 449.468 793.552 447.251 794.128 445.119L810.237 386.49 812.693 333.502C813.002 326.838 818.686 321.685 825.389 321.991 832.092 322.297 837.275 327.948 836.967 334.613 836.962 334.73 836.955 334.847 836.946 334.964L832.559 392.985 812.032 451.141C811.392 452.948 809.616 454.105 807.694 453.967 807.308 453.938 806.926 453.857 806.561 453.725Z" fill="#3F3D56" fill-rule="evenodd"/><path d="M715.705 392.977 340.242 392.977C339.542 392.977 338.974 392.529 338.974 391.977 338.974 391.425 339.542 390.977 340.242 390.977L715.705 390.977C716.406 390.977 716.974 391.425 716.974 391.977 716.974 392.529 716.406 392.977 715.705 392.977Z" fill="#3F3D56" fill-rule="evenodd"/></g></svg>