<svg width="441" height="504" xmlns="http://www.w3.org/2000/svg" xmlns:xlink="http://www.w3.org/1999/xlink" overflow="hidden"><defs><clipPath id="clip0"><rect x="219" y="132" width="441" height="504"/></clipPath></defs><g clip-path="url(#clip0)" transform="translate(-219 -132)"><path d="M651.979 453.981 226.979 453.981C223.114 453.977 219.983 450.845 219.979 446.981L219.979 319.981C219.983 316.117 223.114 312.985 226.979 312.981L651.979 312.981C655.843 312.985 658.974 316.117 658.979 319.981L658.979 446.981C658.974 450.845 655.843 453.977 651.979 453.981ZM226.979 314.981C224.219 314.984 221.982 317.221 221.979 319.981L221.979 446.981C221.982 449.741 224.219 451.978 226.979 451.981L651.979 451.981C654.739 451.978 656.976 449.741 656.979 446.981L656.979 319.981C656.976 317.221 654.739 314.984 651.979 314.981Z" fill="#3F3D56" fill-rule="evenodd"/><path d="M374.325 368.981C373.504 368.978 372.705 368.711 372.045 368.217L366.55 364.174C365.615 363.481 364.344 363.481 363.409 364.174L357.915 368.217C356.182 369.492 353.756 369.103 352.497 367.347 351.767 366.331 351.561 365.021 351.946 363.825L354.045 357.283C354.404 356.169 354.012 354.945 353.074 354.258L347.579 350.214C345.846 348.94 345.461 346.483 346.721 344.728 347.451 343.71 348.617 343.108 349.859 343.108L356.651 343.108C357.809 343.11 358.836 342.355 359.192 341.239L361.291 334.697C361.952 332.634 364.14 331.504 366.178 332.174 367.36 332.563 368.285 333.501 368.669 334.697L370.767 341.239C371.124 342.355 372.15 343.11 373.308 343.108L380.1 343.108C382.242 343.108 383.98 344.867 383.98 347.037 383.978 348.294 383.384 349.476 382.38 350.214L376.885 354.258C375.947 354.945 375.555 356.169 375.915 357.283L378.014 363.825C378.552 365.443 377.98 367.228 376.604 368.217 375.944 368.71 375.146 368.978 374.325 368.981Z" fill="#FFD966" fill-rule="evenodd"/><path d="M431.07 368.981C430.228 368.978 429.409 368.711 428.73 368.217L423.091 364.174C422.13 363.481 420.828 363.481 419.867 364.174L414.228 368.217C412.449 369.492 409.959 369.103 408.667 367.347 407.918 366.331 407.708 365.021 408.101 363.825L410.256 357.283C410.625 356.169 410.222 354.945 409.259 354.258L403.62 350.214C401.841 348.939 401.447 346.482 402.74 344.728 403.489 343.71 404.686 343.108 405.96 343.108L412.93 343.108C414.12 343.11 415.173 342.355 415.539 341.239L417.693 334.697C418.372 332.634 420.617 331.504 422.709 332.174 423.921 332.563 424.872 333.501 425.265 334.697L427.419 341.239C427.784 342.355 428.838 343.11 430.027 343.108L436.998 343.108C439.197 343.108 440.979 344.867 440.979 347.037 440.979 348.294 440.369 349.476 439.339 350.214L433.699 354.258C432.736 354.945 432.333 356.168 432.702 357.283L434.856 363.825C435.41 365.443 434.822 367.228 433.41 368.217 432.732 368.71 431.913 368.978 431.07 368.981Z" fill="#FFD966" fill-rule="evenodd"/><path d="M487.326 368.981C486.505 368.978 485.706 368.71 485.045 368.217L479.55 364.174C478.614 363.484 477.346 363.484 476.41 364.174L470.914 368.217C469.182 369.492 466.756 369.103 465.496 367.347 464.766 366.331 464.561 365.021 464.945 363.825L467.043 357.283C467.404 356.169 467.012 354.945 466.074 354.258L460.578 350.214C458.845 348.939 458.462 346.482 459.721 344.728 460.45 343.71 461.617 343.108 462.858 343.108L469.651 343.108C470.809 343.11 471.835 342.355 472.192 341.239L474.291 334.697C474.952 332.634 477.141 331.504 479.178 332.174 480.359 332.563 481.285 333.501 481.669 334.697L483.768 341.239C484.124 342.355 485.151 343.11 486.309 343.108L493.101 343.108C495.243 343.108 496.981 344.867 496.98 347.037 496.98 348.294 496.385 349.476 495.381 350.214L489.887 354.258C488.948 354.945 488.555 356.169 488.916 357.283L491.014 363.825C491.553 365.443 490.98 367.228 489.606 368.217 488.945 368.71 488.146 368.978 487.326 368.981Z" fill="#FFD966" fill-rule="evenodd"/><path d="M544.07 368.981C543.228 368.978 542.409 368.711 541.73 368.217L536.091 364.174C535.131 363.481 533.828 363.481 532.868 364.174L527.228 368.217C525.449 369.492 522.959 369.103 521.667 367.347 520.918 366.331 520.708 365.021 521.101 363.825L523.256 357.283C523.626 356.169 523.222 354.945 522.259 354.258L516.619 350.214C514.841 348.939 514.447 346.483 515.74 344.728 516.489 343.71 517.685 343.108 518.96 343.108L525.93 343.108C527.12 343.11 528.173 342.355 528.539 341.239L530.693 334.697C531.372 332.634 533.617 331.504 535.709 332.174 536.921 332.563 537.871 333.501 538.265 334.697L540.419 341.239C540.784 342.355 541.838 343.11 543.028 343.108L549.997 343.108C552.196 343.108 553.979 344.867 553.979 347.037 553.979 348.294 553.369 349.476 552.338 350.214L546.698 354.258C545.736 354.945 545.333 356.169 545.702 357.283L547.857 363.825C548.41 365.443 547.822 367.229 546.41 368.217 545.733 368.711 544.913 368.978 544.07 368.981Z" fill="#FFD966" fill-rule="evenodd"/><path d="M274.479 377.981C270.889 377.981 267.979 380.891 267.979 384.481 267.979 388.071 270.889 390.981 274.479 390.981L603.479 390.981C607.068 390.981 609.979 388.071 609.979 384.481 609.979 380.891 607.068 377.981 603.479 377.981Z" fill="#CCCCCC" fill-rule="evenodd"/><path d="M274.479 411.981C270.889 411.981 267.979 414.891 267.979 418.481 267.979 422.071 270.889 424.981 274.479 424.981L603.479 424.981C607.068 424.981 609.979 422.071 609.979 418.481 609.979 414.891 607.068 411.981 603.479 411.981Z" fill="#CCCCCC" fill-rule="evenodd"/><path d="M274.479 377.981C270.889 377.981 267.979 380.891 267.979 384.481 267.979 388.071 270.889 390.981 274.479 390.981L603.479 390.981C607.068 390.981 609.979 388.071 609.979 384.481 609.979 380.891 607.068 377.981 603.479 377.981Z" fill="#CCCCCC" fill-rule="evenodd"/><path d="M274.479 411.981C270.889 411.981 267.979 414.891 267.979 418.481 267.979 422.071 270.889 424.981 274.479 424.981L603.479 424.981C607.068 424.981 609.979 422.071 609.979 418.481 609.979 414.891 607.068 411.981 603.479 411.981Z" fill="#CCCCCC" fill-rule="evenodd"/><path d="M600.326 368.981C599.505 368.978 598.706 368.71 598.045 368.217L592.55 364.174C591.614 363.483 590.346 363.483 589.409 364.174L583.914 368.217C582.182 369.492 579.756 369.103 578.496 367.347 577.766 366.331 577.561 365.021 577.945 363.825L580.043 357.283C580.404 356.169 580.012 354.945 579.074 354.258L573.578 350.214C571.845 348.939 571.462 346.483 572.721 344.728 573.45 343.71 574.617 343.108 575.858 343.108L582.651 343.108C583.809 343.11 584.835 342.355 585.192 341.239L587.291 334.697C587.952 332.634 590.141 331.504 592.178 332.174 593.359 332.563 594.285 333.501 594.669 334.697L596.768 341.239C597.124 342.355 598.151 343.11 599.309 343.108L606.101 343.108C608.243 343.108 609.981 344.867 609.979 347.037 609.979 348.294 609.385 349.476 608.381 350.214L602.887 354.258C601.948 354.945 601.555 356.169 601.916 357.283L604.014 363.825C604.553 365.443 603.98 367.228 602.606 368.217 601.945 368.71 601.146 368.978 600.326 368.981Z" fill="#CCCCCC" fill-rule="evenodd"/><path d="M268.5 355C268.5 351.41 271.41 348.5 275 348.5L336 348.5C339.59 348.5 342.5 351.41 342.5 355L342.5 355C342.5 358.59 339.59 361.5 336 361.5L275 361.5C271.41 361.5 268.5 358.59 268.5 355Z" stroke="#CCCCCC" stroke-width="1.33333" stroke-miterlimit="8" fill="#CCCCCC" fill-rule="evenodd"/><path d="M651.979 272.981 226.979 272.981C223.114 272.977 219.983 269.845 219.979 265.981L219.979 138.981C219.983 135.117 223.114 131.985 226.979 131.981L651.979 131.981C655.843 131.985 658.974 135.117 658.979 138.981L658.979 265.981C658.974 269.845 655.843 272.977 651.979 272.981ZM226.979 133.981C224.219 133.984 221.982 136.221 221.979 138.981L221.979 265.981C221.982 268.741 224.219 270.978 226.979 270.981L651.979 270.981C654.739 270.978 656.976 268.741 656.979 265.981L656.979 138.981C656.976 136.221 654.739 133.984 651.979 133.981Z" fill="#3F3D56" fill-rule="evenodd"/><path d="M374.325 186.981C373.504 186.978 372.705 186.711 372.045 186.217L366.55 182.174C365.615 181.481 364.344 181.481 363.409 182.174L357.915 186.217C356.182 187.492 353.756 187.103 352.497 185.347 351.767 184.331 351.561 183.021 351.946 181.825L354.045 175.283C354.404 174.169 354.012 172.945 353.074 172.258L347.579 168.214C345.846 166.94 345.461 164.483 346.721 162.728 347.451 161.71 348.617 161.108 349.859 161.108L356.651 161.108C357.809 161.11 358.836 160.355 359.192 159.239L361.291 152.697C361.952 150.634 364.14 149.504 366.178 150.174 367.36 150.563 368.285 151.501 368.669 152.697L370.767 159.239C371.124 160.355 372.15 161.11 373.308 161.108L380.1 161.108C382.242 161.108 383.98 162.867 383.98 165.037 383.978 166.294 383.384 167.476 382.38 168.214L376.885 172.258C375.947 172.945 375.555 174.169 375.915 175.283L378.014 181.825C378.552 183.443 377.98 185.228 376.604 186.217 375.944 186.71 375.146 186.978 374.325 186.981Z" fill="#FFD966" fill-rule="evenodd"/><path d="M431.07 186.981C430.228 186.978 429.409 186.711 428.73 186.217L423.091 182.174C422.13 181.481 420.828 181.481 419.867 182.174L414.228 186.217C412.449 187.492 409.959 187.103 408.667 185.347 407.918 184.331 407.708 183.021 408.101 181.825L410.256 175.283C410.625 174.169 410.222 172.945 409.259 172.258L403.62 168.214C401.841 166.939 401.447 164.482 402.74 162.728 403.489 161.71 404.686 161.108 405.96 161.108L412.93 161.108C414.12 161.11 415.173 160.355 415.539 159.239L417.693 152.697C418.372 150.634 420.617 149.504 422.709 150.174 423.921 150.563 424.872 151.501 425.265 152.697L427.419 159.239C427.784 160.355 428.838 161.11 430.027 161.108L436.998 161.108C439.197 161.108 440.979 162.867 440.979 165.037 440.979 166.294 440.369 167.476 439.339 168.214L433.699 172.258C432.736 172.945 432.333 174.168 432.702 175.283L434.856 181.825C435.41 183.443 434.822 185.228 433.41 186.217 432.732 186.71 431.913 186.978 431.07 186.981Z" fill="#FFD966" fill-rule="evenodd"/><path d="M487.326 186.981C486.505 186.978 485.706 186.71 485.045 186.217L479.55 182.174C478.614 181.484 477.346 181.484 476.41 182.174L470.914 186.217C469.182 187.492 466.756 187.103 465.496 185.347 464.766 184.331 464.561 183.021 464.945 181.825L467.043 175.283C467.404 174.169 467.012 172.945 466.074 172.258L460.578 168.214C458.845 166.939 458.462 164.482 459.721 162.728 460.45 161.71 461.617 161.108 462.858 161.108L469.651 161.108C470.809 161.11 471.835 160.355 472.192 159.239L474.291 152.697C474.952 150.634 477.141 149.504 479.178 150.174 480.359 150.563 481.285 151.501 481.669 152.697L483.768 159.239C484.124 160.355 485.151 161.11 486.309 161.108L493.101 161.108C495.243 161.108 496.981 162.867 496.98 165.037 496.98 166.294 496.385 167.476 495.381 168.214L489.887 172.258C488.948 172.945 488.555 174.169 488.916 175.283L491.014 181.825C491.553 183.443 490.98 185.228 489.606 186.217 488.945 186.71 488.146 186.978 487.326 186.981Z" fill="#FFD966" fill-rule="evenodd"/><path d="M544.07 186.981C543.228 186.978 542.409 186.711 541.73 186.217L536.091 182.174C535.131 181.481 533.828 181.481 532.868 182.174L527.228 186.217C525.449 187.492 522.959 187.103 521.667 185.347 520.918 184.331 520.708 183.021 521.101 181.825L523.256 175.283C523.626 174.169 523.222 172.945 522.259 172.258L516.619 168.214C514.841 166.939 514.447 164.483 515.74 162.728 516.489 161.71 517.685 161.108 518.96 161.108L525.93 161.108C527.12 161.11 528.173 160.355 528.539 159.239L530.693 152.697C531.372 150.634 533.617 149.504 535.709 150.174 536.921 150.563 537.871 151.501 538.265 152.697L540.419 159.239C540.784 160.355 541.838 161.11 543.028 161.108L549.997 161.108C552.196 161.108 553.979 162.867 553.979 165.037 553.979 166.294 553.369 167.476 552.338 168.214L546.698 172.258C545.736 172.945 545.333 174.169 545.702 175.283L547.857 181.825C548.41 183.443 547.822 185.229 546.41 186.217 545.733 186.711 544.913 186.978 544.07 186.981Z" fill="#FFD966" fill-rule="evenodd"/><path d="M275.479 195.981C271.889 195.981 268.979 198.891 268.979 202.481 268.979 206.071 271.889 208.981 275.479 208.981L604.479 208.981C608.068 208.981 610.979 206.071 610.979 202.481 610.979 198.891 608.068 195.981 604.479 195.981Z" fill="#CCCCCC" fill-rule="evenodd"/><path d="M275.479 229.981C271.889 229.981 268.979 232.891 268.979 236.481 268.979 240.071 271.889 242.981 275.479 242.981L604.479 242.981C608.068 242.981 610.979 240.071 610.979 236.481 610.979 232.891 608.068 229.981 604.479 229.981Z" fill="#CCCCCC" fill-rule="evenodd"/><path d="M275.479 195.981C271.889 195.981 268.979 198.891 268.979 202.481 268.979 206.071 271.889 208.981 275.479 208.981L604.479 208.981C608.068 208.981 610.979 206.071 610.979 202.481 610.979 198.891 608.068 195.981 604.479 195.981Z" fill="#CCCCCC" fill-rule="evenodd"/><path d="M275.479 229.981C271.889 229.981 268.979 232.891 268.979 236.481 268.979 240.071 271.889 242.981 275.479 242.981L604.479 242.981C608.068 242.981 610.979 240.071 610.979 236.481 610.979 232.891 608.068 229.981 604.479 229.981Z" fill="#CCCCCC" fill-rule="evenodd"/><path d="M601.071 186.981C600.229 186.978 599.409 186.71 598.731 186.217L593.091 182.174C592.13 181.483 590.828 181.483 589.868 182.174L584.227 186.217C582.45 187.492 579.96 187.103 578.667 185.347 577.918 184.331 577.707 183.021 578.102 181.825L580.255 175.283C580.625 174.169 580.223 172.945 579.26 172.258L573.62 168.214C571.841 166.939 571.447 164.483 572.74 162.728 573.488 161.71 574.686 161.108 575.96 161.108L582.931 161.108C584.119 161.11 585.173 160.355 585.539 159.239L587.693 152.697C588.372 150.634 590.618 149.504 592.709 150.174 593.921 150.563 594.872 151.501 595.265 152.697L597.42 159.239C597.785 160.355 598.839 161.11 600.027 161.108L606.998 161.108C609.197 161.108 610.98 162.867 610.979 165.037 610.979 166.294 610.369 167.476 609.339 168.214L603.699 172.258C602.736 172.945 602.333 174.169 602.703 175.283L604.856 181.825C605.41 183.443 604.822 185.228 603.411 186.217 602.733 186.71 601.914 186.978 601.071 186.981Z" fill="#FFD966" fill-rule="evenodd"/><path d="M269.5 173.5C269.5 170.186 272.186 167.5 275.5 167.5L336.5 167.5C339.814 167.5 342.5 170.186 342.5 173.5L342.5 173.5C342.5 176.814 339.814 179.5 336.5 179.5L275.5 179.5C272.186 179.5 269.5 176.814 269.5 173.5Z" stroke="#CCCCCC" stroke-width="1.33333" stroke-miterlimit="8" fill="#CCCCCC" fill-rule="evenodd"/><path d="M651.979 635.981 226.979 635.981C223.114 635.977 219.983 632.845 219.979 628.981L219.979 501.981C219.983 498.117 223.114 494.985 226.979 494.981L651.979 494.981C655.843 494.985 658.974 498.117 658.979 501.981L658.979 628.981C658.974 632.845 655.843 635.977 651.979 635.981ZM226.979 496.981C224.219 496.984 221.982 499.221 221.979 501.981L221.979 628.981C221.982 631.741 224.219 633.978 226.979 633.981L651.979 633.981C654.739 633.978 656.976 631.741 656.979 628.981L656.979 501.981C656.976 499.221 654.739 496.984 651.979 496.981Z" fill="#3F3D56" fill-rule="evenodd"/><path d="M375.07 548.981C374.228 548.978 373.408 548.711 372.73 548.217L367.09 544.174C366.131 543.481 364.827 543.481 363.868 544.174L358.229 548.217C356.45 549.492 353.96 549.103 352.668 547.347 351.918 546.331 351.708 545.021 352.102 543.825L354.256 537.283C354.625 536.169 354.223 534.945 353.26 534.258L347.62 530.214C345.841 528.94 345.447 526.483 346.739 524.728 347.489 523.71 348.686 523.108 349.96 523.108L356.931 523.108C358.119 523.11 359.174 522.355 359.539 521.239L361.693 514.697C362.372 512.634 364.618 511.504 366.709 512.174 367.922 512.563 368.871 513.501 369.266 514.697L371.419 521.239C371.785 522.355 372.839 523.11 374.027 523.108L380.998 523.108C383.196 523.108 384.979 524.867 384.979 527.037 384.978 528.294 384.368 529.476 383.338 530.214L377.698 534.258C376.735 534.945 376.333 536.169 376.703 537.283L378.857 543.825C379.409 545.443 378.821 547.228 377.41 548.217 376.732 548.71 375.913 548.978 375.07 548.981Z" fill="#FFD966" fill-rule="evenodd"/><path d="M431.07 548.981C430.228 548.978 429.409 548.711 428.73 548.217L423.091 544.174C422.13 543.481 420.828 543.481 419.867 544.174L414.228 548.217C412.449 549.492 409.959 549.103 408.667 547.347 407.918 546.331 407.708 545.021 408.101 543.825L410.256 537.283C410.625 536.169 410.222 534.945 409.259 534.258L403.62 530.214C401.841 528.939 401.447 526.482 402.74 524.728 403.489 523.71 404.686 523.108 405.96 523.108L412.93 523.108C414.12 523.11 415.173 522.355 415.539 521.239L417.693 514.697C418.372 512.634 420.617 511.504 422.709 512.174 423.921 512.563 424.872 513.501 425.265 514.697L427.419 521.239C427.784 522.355 428.838 523.11 430.027 523.108L436.998 523.108C439.197 523.108 440.979 524.867 440.979 527.037 440.979 528.294 440.369 529.476 439.339 530.214L433.699 534.258C432.736 534.945 432.333 536.168 432.702 537.283L434.856 543.825C435.41 545.443 434.822 547.228 433.41 548.217 432.732 548.71 431.913 548.978 431.07 548.981Z" fill="#FFD966" fill-rule="evenodd"/><path d="M488.071 548.981C487.229 548.978 486.408 548.71 485.731 548.217L480.091 544.174C479.13 543.484 477.828 543.484 476.868 544.174L471.228 548.217C469.45 549.492 466.96 549.103 465.667 547.347 464.918 546.331 464.707 545.021 465.102 543.825L467.255 537.283C467.625 536.169 467.223 534.945 466.26 534.258L460.62 530.214C458.841 528.939 458.447 526.482 459.74 524.728 460.488 523.71 461.686 523.108 462.96 523.108L469.931 523.108C471.119 523.11 472.173 522.355 472.539 521.239L474.693 514.697C475.372 512.634 477.618 511.504 479.709 512.174 480.921 512.563 481.872 513.501 482.265 514.697L484.42 521.239C484.785 522.355 485.839 523.11 487.027 523.108L493.998 523.108C496.197 523.108 497.98 524.867 497.979 527.037 497.979 528.294 497.369 529.476 496.339 530.214L490.699 534.258C489.736 534.945 489.333 536.169 489.703 537.283L491.856 543.825C492.41 545.443 491.822 547.228 490.411 548.217 489.733 548.71 488.913 548.978 488.071 548.981Z" fill="#FFD966" fill-rule="evenodd"/><path d="M544.07 548.981C543.228 548.978 542.409 548.711 541.73 548.217L536.091 544.174C535.131 543.481 533.828 543.481 532.868 544.174L527.228 548.217C525.449 549.492 522.959 549.103 521.667 547.347 520.918 546.331 520.708 545.021 521.101 543.825L523.256 537.283C523.626 536.169 523.222 534.945 522.259 534.258L516.619 530.214C514.841 528.939 514.447 526.483 515.74 524.728 516.489 523.71 517.685 523.108 518.96 523.108L525.93 523.108C527.12 523.11 528.173 522.355 528.539 521.239L530.693 514.697C531.372 512.634 533.617 511.504 535.709 512.174 536.921 512.563 537.871 513.501 538.265 514.697L540.419 521.239C540.784 522.355 541.838 523.11 543.028 523.108L549.997 523.108C552.196 523.108 553.979 524.867 553.979 527.037 553.979 528.294 553.369 529.476 552.338 530.214L546.698 534.258C545.736 534.945 545.333 536.169 545.702 537.283L547.857 543.825C548.41 545.443 547.822 547.229 546.41 548.217 545.733 548.711 544.913 548.978 544.07 548.981Z" fill="#CCCCCC" fill-rule="evenodd"/><path d="M275.479 558.981C271.889 558.981 268.979 561.891 268.979 565.481 268.979 569.071 271.889 571.981 275.479 571.981L604.479 571.981C608.068 571.981 610.979 569.071 610.979 565.481 610.979 561.891 608.068 558.981 604.479 558.981Z" fill="#CCCCCC" fill-rule="evenodd"/><path d="M275.479 592.981C271.889 592.981 268.979 595.891 268.979 599.481 268.979 603.071 271.889 605.981 275.479 605.981L604.479 605.981C608.068 605.981 610.979 603.071 610.979 599.481 610.979 595.891 608.068 592.981 604.479 592.981Z" fill="#CCCCCC" fill-rule="evenodd"/><path d="M275.479 558.981C271.889 558.981 268.979 561.891 268.979 565.481 268.979 569.071 271.889 571.981 275.479 571.981L604.479 571.981C608.068 571.981 610.979 569.071 610.979 565.481 610.979 561.891 608.068 558.981 604.479 558.981Z" fill="#CCCCCC" fill-rule="evenodd"/><path d="M275.479 592.981C271.889 592.981 268.979 595.891 268.979 599.481 268.979 603.071 271.889 605.981 275.479 605.981L604.479 605.981C608.068 605.981 610.979 603.071 610.979 599.481 610.979 595.891 608.068 592.981 604.479 592.981Z" fill="#CCCCCC" fill-rule="evenodd"/><path d="M600.326 548.981C599.505 548.978 598.706 548.71 598.045 548.217L592.55 544.174C591.614 543.483 590.346 543.483 589.409 544.174L583.914 548.217C582.182 549.492 579.756 549.103 578.496 547.347 577.766 546.331 577.561 545.021 577.945 543.825L580.043 537.283C580.404 536.169 580.012 534.945 579.074 534.258L573.578 530.214C571.845 528.939 571.462 526.483 572.721 524.728 573.45 523.71 574.617 523.108 575.858 523.108L582.651 523.108C583.809 523.11 584.835 522.355 585.192 521.239L587.291 514.697C587.952 512.634 590.141 511.504 592.178 512.174 593.359 512.563 594.285 513.501 594.669 514.697L596.768 521.239C597.124 522.355 598.151 523.11 599.309 523.108L606.101 523.108C608.243 523.108 609.981 524.867 609.979 527.037 609.979 528.294 609.385 529.476 608.381 530.214L602.887 534.258C601.948 534.945 601.555 536.169 601.916 537.283L604.014 543.825C604.553 545.443 603.98 547.228 602.606 548.217 601.945 548.71 601.146 548.978 600.326 548.981Z" fill="#CCCCCC" fill-rule="evenodd"/><path d="M269.5 535.5C269.5 532.186 272.186 529.5 275.5 529.5L336.5 529.5C339.814 529.5 342.5 532.186 342.5 535.5L342.5 535.5C342.5 538.814 339.814 541.5 336.5 541.5L275.5 541.5C272.186 541.5 269.5 538.814 269.5 535.5Z" stroke="#CCCCCC" stroke-width="1.33333" stroke-miterlimit="8" fill="#CCCCCC" fill-rule="evenodd"/></g></svg>