<svg width="592" height="480" xmlns="http://www.w3.org/2000/svg" xmlns:xlink="http://www.w3.org/1999/xlink" overflow="hidden"><defs><clipPath id="clip0"><rect x="182" y="101" width="592" height="480"/></clipPath></defs><g clip-path="url(#clip0)" transform="translate(-182 -101)"><path d="M690.979 411.981 265.979 411.981C262.114 411.977 258.983 408.845 258.979 404.981L258.979 277.981C258.983 274.117 262.114 270.985 265.979 270.981L690.979 270.981C694.843 270.985 697.974 274.117 697.979 277.981L697.979 404.981C697.974 408.845 694.843 411.977 690.979 411.981ZM265.979 272.981C263.219 272.984 260.982 275.221 260.979 277.981L260.979 404.981C260.982 407.741 263.219 409.978 265.979 409.981L690.979 409.981C693.739 409.978 695.976 407.741 695.979 404.981L695.979 277.981C695.976 275.221 693.739 272.984 690.979 272.981Z" fill="#3F3D56" fill-rule="evenodd"/><path d="M413.325 325.981C412.504 325.978 411.705 325.711 411.045 325.217L405.55 321.174C404.615 320.481 403.344 320.481 402.409 321.174L396.915 325.217C395.182 326.492 392.756 326.103 391.497 324.347 390.767 323.331 390.561 322.021 390.946 320.825L393.045 314.283C393.404 313.169 393.012 311.945 392.074 311.258L386.579 307.214C384.846 305.94 384.461 303.483 385.721 301.728 386.451 300.71 387.617 300.108 388.859 300.108L395.651 300.108C396.809 300.11 397.836 299.355 398.192 298.239L400.291 291.697C400.952 289.634 403.14 288.504 405.178 289.174 406.36 289.563 407.285 290.501 407.669 291.697L409.767 298.239C410.124 299.355 411.15 300.11 412.308 300.108L419.1 300.108C421.242 300.108 422.98 301.867 422.98 304.037 422.978 305.294 422.384 306.476 421.38 307.214L415.885 311.258C414.947 311.945 414.555 313.169 414.915 314.283L417.014 320.825C417.552 322.443 416.98 324.228 415.604 325.217 414.944 325.71 414.146 325.978 413.325 325.981Z" fill="#FFD966" fill-rule="evenodd"/><path d="M470.07 325.981C469.228 325.978 468.409 325.711 467.73 325.217L462.091 321.174C461.13 320.481 459.828 320.481 458.867 321.174L453.228 325.217C451.449 326.492 448.959 326.103 447.667 324.347 446.918 323.331 446.708 322.021 447.101 320.825L449.256 314.283C449.625 313.169 449.222 311.945 448.259 311.258L442.62 307.214C440.841 305.939 440.447 303.482 441.74 301.728 442.489 300.71 443.686 300.108 444.96 300.108L451.93 300.108C453.12 300.11 454.173 299.355 454.539 298.239L456.693 291.697C457.372 289.634 459.617 288.504 461.709 289.174 462.921 289.563 463.872 290.501 464.265 291.697L466.419 298.239C466.784 299.355 467.838 300.11 469.027 300.108L475.998 300.108C478.197 300.108 479.979 301.867 479.979 304.037 479.979 305.294 479.369 306.476 478.339 307.214L472.699 311.258C471.736 311.945 471.333 313.168 471.702 314.283L473.856 320.825C474.41 322.443 473.822 324.228 472.41 325.217 471.732 325.71 470.913 325.978 470.07 325.981Z" fill="#FFD966" fill-rule="evenodd"/><path d="M526.326 325.981C525.505 325.978 524.706 325.71 524.045 325.217L518.55 321.174C517.614 320.484 516.346 320.484 515.409 321.174L509.914 325.217C508.182 326.492 505.756 326.103 504.496 324.347 503.766 323.331 503.561 322.021 503.945 320.825L506.043 314.283C506.404 313.169 506.012 311.945 505.074 311.258L499.578 307.214C497.845 305.939 497.462 303.482 498.721 301.728 499.45 300.71 500.617 300.108 501.858 300.108L508.651 300.108C509.809 300.11 510.835 299.355 511.192 298.239L513.291 291.697C513.952 289.634 516.141 288.504 518.178 289.174 519.359 289.563 520.285 290.501 520.669 291.697L522.768 298.239C523.124 299.355 524.151 300.11 525.309 300.108L532.101 300.108C534.243 300.108 535.981 301.867 535.979 304.037 535.979 305.294 535.385 306.476 534.381 307.214L528.887 311.258C527.948 311.945 527.555 313.169 527.916 314.283L530.014 320.825C530.553 322.443 529.98 324.228 528.606 325.217 527.945 325.71 527.146 325.978 526.326 325.981Z" fill="#FFD966" fill-rule="evenodd"/><path d="M583.07 325.981C582.228 325.978 581.409 325.711 580.73 325.217L575.091 321.174C574.131 320.481 572.828 320.481 571.868 321.174L566.228 325.217C564.449 326.492 561.959 326.103 560.667 324.347 559.918 323.331 559.708 322.021 560.101 320.825L562.256 314.283C562.626 313.169 562.222 311.945 561.259 311.258L555.619 307.214C553.841 305.939 553.447 303.483 554.74 301.728 555.489 300.71 556.685 300.108 557.96 300.108L564.93 300.108C566.12 300.11 567.173 299.355 567.539 298.239L569.693 291.697C570.372 289.634 572.617 288.504 574.709 289.174 575.921 289.563 576.871 290.501 577.265 291.697L579.419 298.239C579.784 299.355 580.838 300.11 582.028 300.108L588.997 300.108C591.196 300.108 592.979 301.867 592.979 304.037 592.979 305.294 592.369 306.476 591.338 307.214L585.698 311.258C584.736 311.945 584.333 313.169 584.702 314.283L586.857 320.825C587.41 322.443 586.822 324.229 585.41 325.217 584.733 325.711 583.913 325.978 583.07 325.981Z" fill="#FFD966" fill-rule="evenodd"/><path d="M313.479 334.981C309.889 334.981 306.979 337.891 306.979 341.481 306.979 345.071 309.889 347.981 313.479 347.981L642.479 347.981C646.068 347.981 648.979 345.071 648.979 341.481 648.979 337.891 646.068 334.981 642.479 334.981Z" fill="#CCCCCC" fill-rule="evenodd"/><path d="M313.479 368.981C309.889 368.981 306.979 371.891 306.979 375.481 306.979 379.071 309.889 381.981 313.479 381.981L642.479 381.981C646.068 381.981 648.979 379.071 648.979 375.481 648.979 371.891 646.068 368.981 642.479 368.981Z" fill="#CCCCCC" fill-rule="evenodd"/><path d="M313.479 334.981C309.889 334.981 306.979 337.891 306.979 341.481 306.979 345.071 309.889 347.981 313.479 347.981L642.479 347.981C646.068 347.981 648.979 345.071 648.979 341.481 648.979 337.891 646.068 334.981 642.479 334.981Z" fill="#CCCCCC" fill-rule="evenodd"/><path d="M313.479 368.981C309.889 368.981 306.979 371.891 306.979 375.481 306.979 379.071 309.889 381.981 313.479 381.981L642.479 381.981C646.068 381.981 648.979 379.071 648.979 375.481 648.979 371.891 646.068 368.981 642.479 368.981Z" fill="#CCCCCC" fill-rule="evenodd"/><path d="M639.326 325.981C638.505 325.978 637.706 325.71 637.045 325.217L631.55 321.174C630.614 320.483 629.346 320.483 628.409 321.174L622.914 325.217C621.182 326.492 618.756 326.103 617.496 324.347 616.766 323.331 616.561 322.021 616.945 320.825L619.043 314.283C619.404 313.169 619.012 311.945 618.074 311.258L612.578 307.214C610.845 305.939 610.462 303.483 611.721 301.728 612.45 300.71 613.617 300.108 614.858 300.108L621.651 300.108C622.809 300.11 623.835 299.355 624.192 298.239L626.291 291.697C626.952 289.634 629.141 288.504 631.178 289.174 632.359 289.563 633.285 290.501 633.669 291.697L635.768 298.239C636.124 299.355 637.151 300.11 638.309 300.108L645.101 300.108C647.243 300.108 648.981 301.867 648.979 304.037 648.979 305.294 648.385 306.476 647.381 307.214L641.887 311.258C640.948 311.945 640.555 313.169 640.916 314.283L643.014 320.825C643.553 322.443 642.98 324.228 641.606 325.217 640.945 325.71 640.146 325.978 639.326 325.981Z" fill="#CCCCCC" fill-rule="evenodd"/><path d="M307.5 312.5C307.5 309.186 310.186 306.5 313.5 306.5L375.5 306.5C378.814 306.5 381.5 309.186 381.5 312.5L381.5 312.5C381.5 315.814 378.814 318.5 375.5 318.5L313.5 318.5C310.186 318.5 307.5 315.814 307.5 312.5Z" stroke="#CCCCCC" stroke-width="1.33333" stroke-miterlimit="8" fill="#CCCCCC" fill-rule="evenodd"/><path d="M614.979 242.981 189.979 242.981C186.114 242.977 182.983 239.845 182.979 235.981L182.979 108.981C182.983 105.117 186.114 101.985 189.979 101.981L614.979 101.981C618.843 101.985 621.974 105.117 621.979 108.981L621.979 235.981C621.974 239.845 618.843 242.977 614.979 242.981ZM189.979 103.981C187.219 103.984 184.982 106.221 184.979 108.981L184.979 235.981C184.982 238.741 187.219 240.978 189.979 240.981L614.979 240.981C617.739 240.978 619.976 238.741 619.979 235.981L619.979 108.981C619.976 106.221 617.739 103.984 614.979 103.981Z" fill="#3F3D56" fill-rule="evenodd"/><path d="M337.325 156.981C336.504 156.978 335.705 156.711 335.045 156.217L329.55 152.174C328.615 151.481 327.344 151.481 326.409 152.174L320.915 156.217C319.182 157.492 316.756 157.103 315.497 155.347 314.767 154.331 314.561 153.021 314.946 151.825L317.045 145.283C317.404 144.169 317.012 142.945 316.074 142.258L310.579 138.214C308.846 136.94 308.461 134.483 309.721 132.728 310.451 131.71 311.617 131.108 312.859 131.108L319.651 131.108C320.809 131.11 321.836 130.355 322.192 129.239L324.291 122.697C324.952 120.634 327.14 119.504 329.178 120.174 330.36 120.563 331.285 121.501 331.669 122.697L333.767 129.239C334.124 130.355 335.15 131.11 336.308 131.108L343.1 131.108C345.242 131.108 346.98 132.867 346.98 135.037 346.978 136.294 346.384 137.476 345.38 138.214L339.885 142.258C338.947 142.945 338.555 144.169 338.915 145.283L341.014 151.825C341.552 153.443 340.98 155.228 339.604 156.217 338.944 156.71 338.146 156.978 337.325 156.981Z" fill="#FFD966" fill-rule="evenodd"/><path d="M394.07 156.981C393.228 156.978 392.409 156.711 391.73 156.217L386.091 152.174C385.13 151.481 383.828 151.481 382.867 152.174L377.228 156.217C375.449 157.492 372.959 157.103 371.667 155.347 370.918 154.331 370.708 153.021 371.101 151.825L373.256 145.283C373.625 144.169 373.222 142.945 372.259 142.258L366.62 138.214C364.841 136.939 364.447 134.482 365.74 132.728 366.489 131.71 367.686 131.108 368.96 131.108L375.93 131.108C377.12 131.11 378.173 130.355 378.539 129.239L380.693 122.697C381.372 120.634 383.617 119.504 385.709 120.174 386.921 120.563 387.872 121.501 388.265 122.697L390.419 129.239C390.784 130.355 391.838 131.11 393.027 131.108L399.998 131.108C402.197 131.108 403.979 132.867 403.979 135.037 403.979 136.294 403.369 137.476 402.339 138.214L396.699 142.258C395.736 142.945 395.333 144.168 395.702 145.283L397.856 151.825C398.41 153.443 397.822 155.228 396.41 156.217 395.732 156.71 394.913 156.978 394.07 156.981Z" fill="#FFD966" fill-rule="evenodd"/><path d="M450.326 156.981C449.505 156.978 448.706 156.71 448.045 156.217L442.55 152.174C441.614 151.484 440.346 151.484 439.41 152.174L433.914 156.217C432.182 157.492 429.756 157.103 428.496 155.347 427.766 154.331 427.561 153.021 427.945 151.825L430.043 145.283C430.404 144.169 430.012 142.945 429.074 142.258L423.578 138.214C421.845 136.939 421.462 134.482 422.721 132.728 423.45 131.71 424.617 131.108 425.858 131.108L432.651 131.108C433.809 131.11 434.835 130.355 435.192 129.239L437.291 122.697C437.952 120.634 440.141 119.504 442.178 120.174 443.359 120.563 444.285 121.501 444.669 122.697L446.768 129.239C447.124 130.355 448.151 131.11 449.309 131.108L456.101 131.108C458.243 131.108 459.981 132.867 459.98 135.037 459.98 136.294 459.385 137.476 458.381 138.214L452.887 142.258C451.948 142.945 451.555 144.169 451.916 145.283L454.014 151.825C454.553 153.443 453.98 155.228 452.606 156.217 451.945 156.71 451.146 156.978 450.326 156.981Z" fill="#FFD966" fill-rule="evenodd"/><path d="M507.07 156.981C506.228 156.978 505.409 156.711 504.73 156.217L499.091 152.174C498.131 151.481 496.828 151.481 495.868 152.174L490.228 156.217C488.449 157.492 485.959 157.103 484.667 155.347 483.918 154.331 483.708 153.021 484.101 151.825L486.256 145.283C486.626 144.169 486.222 142.945 485.259 142.258L479.619 138.214C477.841 136.939 477.447 134.483 478.74 132.728 479.489 131.71 480.685 131.108 481.96 131.108L488.93 131.108C490.12 131.11 491.173 130.355 491.539 129.239L493.693 122.697C494.372 120.634 496.617 119.504 498.709 120.174 499.921 120.563 500.871 121.501 501.265 122.697L503.419 129.239C503.784 130.355 504.838 131.11 506.028 131.108L512.997 131.108C515.196 131.108 516.979 132.867 516.979 135.037 516.979 136.294 516.369 137.476 515.338 138.214L509.698 142.258C508.736 142.945 508.333 144.169 508.702 145.283L510.857 151.825C511.41 153.443 510.822 155.229 509.41 156.217 508.733 156.711 507.913 156.978 507.07 156.981Z" fill="#FFD966" fill-rule="evenodd"/><path d="M238.479 165.981C234.889 165.981 231.979 168.891 231.979 172.481 231.979 176.071 234.889 178.981 238.479 178.981L567.479 178.981C571.068 178.981 573.979 176.071 573.979 172.481 573.979 168.891 571.068 165.981 567.479 165.981Z" fill="#CCCCCC" fill-rule="evenodd"/><path d="M238.479 199.981C234.889 199.981 231.979 202.891 231.979 206.481 231.979 210.071 234.889 212.981 238.479 212.981L567.479 212.981C571.068 212.981 573.979 210.071 573.979 206.481 573.979 202.891 571.068 199.981 567.479 199.981Z" fill="#CCCCCC" fill-rule="evenodd"/><path d="M238.479 165.981C234.889 165.981 231.979 168.891 231.979 172.481 231.979 176.071 234.889 178.981 238.479 178.981L567.479 178.981C571.068 178.981 573.979 176.071 573.979 172.481 573.979 168.891 571.068 165.981 567.479 165.981Z" fill="#CCCCCC" fill-rule="evenodd"/><path d="M238.479 199.981C234.889 199.981 231.979 202.891 231.979 206.481 231.979 210.071 234.889 212.981 238.479 212.981L567.479 212.981C571.068 212.981 573.979 210.071 573.979 206.481 573.979 202.891 571.068 199.981 567.479 199.981Z" fill="#CCCCCC" fill-rule="evenodd"/><path d="M564.071 156.981C563.229 156.978 562.409 156.71 561.731 156.217L556.091 152.174C555.13 151.483 553.828 151.483 552.868 152.174L547.227 156.217C545.45 157.492 542.96 157.103 541.667 155.347 540.918 154.331 540.707 153.021 541.102 151.825L543.255 145.283C543.625 144.169 543.223 142.945 542.26 142.258L536.62 138.214C534.841 136.939 534.447 134.483 535.74 132.728 536.488 131.71 537.686 131.108 538.96 131.108L545.931 131.108C547.119 131.11 548.173 130.355 548.539 129.239L550.693 122.697C551.372 120.634 553.618 119.504 555.709 120.174 556.921 120.563 557.872 121.501 558.265 122.697L560.42 129.239C560.785 130.355 561.839 131.11 563.027 131.108L569.998 131.108C572.197 131.108 573.98 132.867 573.979 135.037 573.979 136.294 573.369 137.476 572.339 138.214L566.699 142.258C565.736 142.945 565.333 144.169 565.703 145.283L567.856 151.825C568.41 153.443 567.822 155.228 566.411 156.217 565.733 156.71 564.914 156.978 564.071 156.981Z" fill="#FFD966" fill-rule="evenodd"/><path d="M232.5 143.5C232.5 140.186 235.186 137.5 238.5 137.5L299.5 137.5C302.814 137.5 305.5 140.186 305.5 143.5L305.5 143.5C305.5 146.814 302.814 149.5 299.5 149.5L238.5 149.5C235.186 149.5 232.5 146.814 232.5 143.5Z" stroke="#CCCCCC" stroke-width="1.33333" stroke-miterlimit="8" fill="#CCCCCC" fill-rule="evenodd"/><path d="M766.979 579.981 341.979 579.981C338.114 579.977 334.983 576.845 334.979 572.981L334.979 445.981C334.983 442.117 338.114 438.985 341.979 438.981L766.979 438.981C770.843 438.985 773.974 442.117 773.979 445.981L773.979 572.981C773.974 576.845 770.843 579.977 766.979 579.981ZM341.979 440.981C339.219 440.984 336.982 443.221 336.979 445.981L336.979 572.981C336.982 575.741 339.219 577.978 341.979 577.981L766.979 577.981C769.739 577.978 771.976 575.741 771.979 572.981L771.979 445.981C771.976 443.221 769.739 440.984 766.979 440.981Z" fill="#3F3D56" fill-rule="evenodd"/><path d="M489.325 493.981C488.504 493.978 487.705 493.711 487.045 493.217L481.55 489.174C480.615 488.481 479.344 488.481 478.409 489.174L472.915 493.217C471.182 494.492 468.756 494.103 467.497 492.347 466.767 491.331 466.561 490.021 466.946 488.825L469.045 482.283C469.404 481.169 469.012 479.945 468.074 479.258L462.579 475.214C460.846 473.94 460.461 471.483 461.721 469.728 462.451 468.71 463.617 468.108 464.859 468.108L471.651 468.108C472.809 468.11 473.836 467.355 474.192 466.239L476.291 459.697C476.952 457.634 479.14 456.504 481.178 457.174 482.36 457.563 483.285 458.501 483.669 459.697L485.767 466.239C486.124 467.355 487.15 468.11 488.308 468.108L495.1 468.108C497.242 468.108 498.98 469.867 498.98 472.037 498.978 473.294 498.384 474.476 497.38 475.214L491.885 479.258C490.947 479.945 490.555 481.169 490.915 482.283L493.014 488.825C493.552 490.443 492.98 492.228 491.604 493.217 490.944 493.71 490.146 493.978 489.325 493.981Z" fill="#FFD966" fill-rule="evenodd"/><path d="M546.07 493.981C545.228 493.978 544.409 493.711 543.73 493.217L538.091 489.174C537.13 488.481 535.828 488.481 534.867 489.174L529.228 493.217C527.449 494.492 524.959 494.103 523.667 492.347 522.918 491.331 522.708 490.021 523.102 488.825L525.256 482.283C525.625 481.169 525.222 479.945 524.259 479.258L518.62 475.214C516.841 473.939 516.447 471.482 517.74 469.728 518.489 468.71 519.686 468.108 520.961 468.108L527.93 468.108C529.12 468.11 530.173 467.355 530.539 466.239L532.693 459.697C533.372 457.634 535.617 456.504 537.709 457.174 538.921 457.563 539.872 458.501 540.265 459.697L542.419 466.239C542.784 467.355 543.838 468.11 545.027 468.108L551.998 468.108C554.197 468.108 555.979 469.867 555.979 472.037 555.979 473.294 555.369 474.476 554.339 475.214L548.699 479.258C547.736 479.945 547.333 481.168 547.702 482.283L549.856 488.825C550.41 490.443 549.822 492.228 548.41 493.217 547.732 493.71 546.913 493.978 546.07 493.981Z" fill="#FFD966" fill-rule="evenodd"/><path d="M602.326 493.981C601.505 493.978 600.706 493.71 600.045 493.217L594.55 489.174C593.614 488.484 592.346 488.484 591.409 489.174L585.914 493.217C584.182 494.492 581.756 494.103 580.496 492.347 579.766 491.331 579.561 490.021 579.945 488.825L582.043 482.283C582.404 481.169 582.012 479.945 581.074 479.258L575.578 475.214C573.845 473.939 573.462 471.482 574.721 469.728 575.45 468.71 576.617 468.108 577.858 468.108L584.651 468.108C585.809 468.11 586.835 467.355 587.192 466.239L589.291 459.697C589.952 457.634 592.141 456.504 594.178 457.174 595.359 457.563 596.285 458.501 596.669 459.697L598.768 466.239C599.124 467.355 600.151 468.11 601.309 468.108L608.101 468.108C610.243 468.108 611.981 469.867 611.979 472.037 611.979 473.294 611.385 474.476 610.381 475.214L604.887 479.258C603.948 479.945 603.555 481.169 603.916 482.283L606.014 488.825C606.553 490.443 605.98 492.228 604.606 493.217 603.945 493.71 603.146 493.978 602.326 493.981Z" fill="#FFD966" fill-rule="evenodd"/><path d="M659.07 493.981C658.228 493.978 657.409 493.711 656.73 493.217L651.091 489.174C650.131 488.481 648.828 488.481 647.868 489.174L642.228 493.217C640.449 494.492 637.959 494.103 636.667 492.347 635.918 491.331 635.708 490.021 636.101 488.825L638.256 482.283C638.626 481.169 638.222 479.945 637.259 479.258L631.619 475.214C629.841 473.939 629.447 471.483 630.74 469.728 631.489 468.71 632.685 468.108 633.96 468.108L640.93 468.108C642.12 468.11 643.173 467.355 643.539 466.239L645.693 459.697C646.372 457.634 648.617 456.504 650.709 457.174 651.921 457.563 652.871 458.501 653.265 459.697L655.419 466.239C655.784 467.355 656.838 468.11 658.028 468.108L664.997 468.108C667.196 468.108 668.979 469.867 668.979 472.037 668.979 473.294 668.369 474.476 667.338 475.214L661.698 479.258C660.736 479.945 660.333 481.169 660.702 482.283L662.857 488.825C663.41 490.443 662.822 492.229 661.41 493.217 660.733 493.711 659.913 493.978 659.07 493.981Z" fill="#CCCCCC" fill-rule="evenodd"/><path d="M389.479 502.981C385.889 502.981 382.979 505.891 382.979 509.481 382.979 513.071 385.889 515.981 389.479 515.981L718.479 515.981C722.068 515.981 724.979 513.071 724.979 509.481 724.979 505.891 722.068 502.981 718.479 502.981Z" fill="#CCCCCC" fill-rule="evenodd"/><path d="M389.479 536.981C385.889 536.981 382.979 539.891 382.979 543.481 382.979 547.071 385.889 549.981 389.479 549.981L718.479 549.981C722.068 549.981 724.979 547.071 724.979 543.481 724.979 539.891 722.068 536.981 718.479 536.981Z" fill="#CCCCCC" fill-rule="evenodd"/><path d="M389.479 502.981C385.889 502.981 382.979 505.891 382.979 509.481 382.979 513.071 385.889 515.981 389.479 515.981L718.479 515.981C722.068 515.981 724.979 513.071 724.979 509.481 724.979 505.891 722.068 502.981 718.479 502.981Z" fill="#CCCCCC" fill-rule="evenodd"/><path d="M389.479 536.981C385.889 536.981 382.979 539.891 382.979 543.481 382.979 547.071 385.889 549.981 389.479 549.981L718.479 549.981C722.068 549.981 724.979 547.071 724.979 543.481 724.979 539.891 722.068 536.981 718.479 536.981Z" fill="#CCCCCC" fill-rule="evenodd"/><path d="M715.071 493.981C714.229 493.978 713.409 493.71 712.731 493.217L707.091 489.174C706.13 488.483 704.828 488.483 703.868 489.174L698.227 493.217C696.45 494.492 693.96 494.103 692.667 492.347 691.918 491.331 691.707 490.021 692.102 488.825L694.255 482.283C694.625 481.169 694.223 479.945 693.26 479.258L687.62 475.214C685.841 473.939 685.447 471.483 686.74 469.728 687.488 468.71 688.686 468.108 689.96 468.108L696.931 468.108C698.119 468.11 699.173 467.355 699.539 466.239L701.693 459.697C702.372 457.634 704.618 456.504 706.709 457.174 707.921 457.563 708.872 458.501 709.265 459.697L711.42 466.239C711.785 467.355 712.839 468.11 714.027 468.108L720.998 468.108C723.197 468.108 724.98 469.867 724.979 472.037 724.979 473.294 724.369 474.476 723.339 475.214L717.699 479.258C716.736 479.945 716.333 481.169 716.703 482.283L718.856 488.825C719.41 490.443 718.822 492.228 717.411 493.217 716.733 493.71 715.914 493.978 715.071 493.981Z" fill="#CCCCCC" fill-rule="evenodd"/><path d="M383.5 480C383.5 476.41 386.41 473.5 390 473.5L451 473.5C454.59 473.5 457.5 476.41 457.5 480L457.5 480C457.5 483.59 454.59 486.5 451 486.5L390 486.5C386.41 486.5 383.5 483.59 383.5 480Z" stroke="#CCCCCC" stroke-width="1.33333" stroke-miterlimit="8" fill="#CCCCCC" fill-rule="evenodd"/></g></svg>