<svg width="509" height="465" xmlns="http://www.w3.org/2000/svg" xmlns:xlink="http://www.w3.org/1999/xlink" overflow="hidden"><defs><clipPath id="clip0"><rect x="265" y="96" width="509" height="465"/></clipPath></defs><g clip-path="url(#clip0)" transform="translate(-265 -96)"><path d="M756.282 96.9804 282.671 96.9804C273.455 96.9884 265.985 104.427 265.976 113.605L265.976 164.356C265.985 173.534 273.455 180.972 282.671 180.98L756.282 180.98C765.499 180.972 772.968 173.534 772.976 164.356L772.976 113.605C772.968 104.427 765.499 96.9884 756.282 96.9804ZM771.22 164.356C771.208 172.566 764.527 179.219 756.282 179.231L282.671 179.231C274.427 179.219 267.746 172.566 267.734 164.356L267.734 113.605C267.746 105.396 274.427 98.7416 282.671 98.7306L756.282 98.7306C764.527 98.7416 771.208 105.396 771.22 113.605Z" fill="#3F3D56" fill-rule="evenodd"/><path d="M756.282 301.98 282.671 301.98C273.456 301.97 265.987 294.444 265.976 285.158L265.976 233.803C265.987 224.516 273.456 216.99 282.671 216.98L756.282 216.98C765.498 216.99 772.966 224.516 772.976 233.803L772.976 285.158C772.966 294.444 765.498 301.97 756.282 301.98ZM282.671 218.751C274.426 218.76 267.743 225.493 267.734 233.803L267.734 285.158C267.743 293.467 274.426 300.2 282.671 300.209L756.282 300.209C764.528 300.2 771.21 293.467 771.22 285.158L771.22 233.803C771.21 225.493 764.528 218.76 756.282 218.751Z" fill="#CCCCCC" fill-rule="evenodd"/><path d="M756.282 421.981 282.671 421.981C273.456 421.97 265.987 414.532 265.976 405.355L265.976 354.606C265.987 345.429 273.456 337.991 282.671 337.98L756.282 337.98C765.498 337.991 772.966 345.429 772.976 354.606L772.976 405.355C772.966 414.532 765.498 421.97 756.282 421.981ZM282.671 339.731C274.426 339.74 267.743 346.394 267.734 354.606L267.734 405.355C267.743 413.567 274.426 420.221 282.671 420.23L756.282 420.23C764.528 420.221 771.21 413.567 771.22 405.356L771.22 354.606C771.21 346.394 764.528 339.74 756.282 339.731Z" fill="#CCCCCC" fill-rule="evenodd"/><path d="M346.976 167.98C330.96 167.98 317.976 154.997 317.976 138.981 317.976 122.965 330.96 109.981 346.976 109.98 362.993 109.98 375.976 122.964 375.976 138.98 375.958 154.989 362.986 167.961 346.976 167.98Z" fill="#2073D9" fill-rule="evenodd"/><path d="M712.952 162.98 403 162.98C399.121 162.98 395.976 159.847 395.976 155.98 395.976 152.114 399.121 148.98 403 148.98L712.952 148.98C716.832 148.98 719.976 152.114 719.976 155.98 719.976 159.847 716.832 162.98 712.952 162.98Z" fill="#CCCCCC" fill-rule="evenodd"/><path d="M611.952 132.98 403.008 132.98C399.129 132.985 395.981 129.855 395.976 125.988 395.972 122.123 399.112 118.984 402.991 118.98 402.997 118.98 403.002 118.98 403.008 118.98L611.952 118.98C615.831 118.98 618.976 122.114 618.976 125.98 618.976 129.847 615.831 132.98 611.952 132.98Z" fill="#CCCCCC" fill-rule="evenodd"/><path d="M346.976 287.98C330.96 287.98 317.976 274.997 317.976 258.98 317.976 242.964 330.96 229.98 346.976 229.98 362.993 229.98 375.976 242.964 375.976 258.98 375.958 274.99 362.986 287.962 346.976 287.98Z" fill="#E6E6E6" fill-rule="evenodd"/><path d="M712.952 282.981 403 282.981C399.121 282.981 395.976 279.847 395.976 275.981 395.976 272.115 399.121 268.98 403 268.98L712.952 268.98C716.832 268.98 719.976 272.115 719.976 275.981 719.976 279.847 716.832 282.981 712.952 282.981Z" fill="#E6E6E6" fill-rule="evenodd"/><path d="M611.952 252.981 403 252.981C399.12 252.981 395.976 249.847 395.976 245.981 395.976 242.115 399.12 238.98 403 238.98L611.952 238.98C615.831 238.98 618.976 242.115 618.976 245.981 618.976 249.847 615.831 252.981 611.952 252.981Z" fill="#E6E6E6" fill-rule="evenodd"/><path d="M346.976 408.98C330.96 408.98 317.976 395.997 317.976 379.98 317.976 363.964 330.96 350.98 346.976 350.98 362.993 350.98 375.976 363.964 375.976 379.98 375.958 395.989 362.986 408.962 346.976 408.98Z" fill="#E6E6E6" fill-rule="evenodd"/><path d="M712.96 402.981 403.009 402.981C399.13 402.985 395.981 399.855 395.976 395.989 395.972 392.123 399.113 388.985 402.992 388.98 402.998 388.98 403.003 388.98 403.009 388.98L712.96 388.98C716.84 388.985 719.981 392.123 719.976 395.989 719.971 399.848 716.833 402.976 712.96 402.981Z" fill="#E6E6E6" fill-rule="evenodd"/><path d="M611.952 373.979 403 373.979C399.12 373.979 395.976 370.621 395.976 366.479 395.976 362.337 399.12 358.979 403 358.979L611.952 358.979C615.831 358.979 618.976 362.337 618.976 366.479 618.976 370.621 615.831 373.979 611.952 373.979Z" fill="#E6E6E6" fill-rule="evenodd"/><path d="M344.936 148.981C344.209 148.982 343.503 148.752 342.922 148.326L342.885 148.3 335.297 142.627C333.819 141.52 333.539 139.451 334.671 138.007 335.804 136.562 337.92 136.287 339.398 137.394 339.4 137.395 339.401 137.396 339.401 137.396L344.315 141.079 355.93 126.271C357.062 124.827 359.178 124.554 360.655 125.661 360.655 125.661 360.655 125.661 360.655 125.661L360.656 125.662 360.584 125.759 360.658 125.662C362.133 126.769 362.412 128.836 361.281 130.281L347.621 147.692C346.98 148.505 345.989 148.98 344.938 148.977Z" fill="#FFFFFF" fill-rule="evenodd"/><path d="M266.5 474.667C266.5 466.843 272.843 460.5 280.667 460.5L759.333 460.5C767.157 460.5 773.5 466.843 773.5 474.667L773.5 531.333C773.5 539.157 767.157 545.5 759.333 545.5L280.667 545.5C272.843 545.5 266.5 539.157 266.5 531.333Z" stroke="#E6E6E6" stroke-width="1.33333" stroke-miterlimit="8" fill="#4472C4" fill-rule="evenodd"/><text fill="#FFFFFF" font-family="Consolas,Consolas_MSFontService,sans-serif" font-weight="400" font-size="48" transform="translate(409.777 519)">Dashboard</text></g></svg>