<svg width="1089" height="740" xmlns="http://www.w3.org/2000/svg" xmlns:xlink="http://www.w3.org/1999/xlink" overflow="hidden"><defs><clipPath id="clip0"><rect x="73" y="-19" width="1089" height="740"/></clipPath></defs><g clip-path="url(#clip0)" transform="translate(-73 19)"><path d="M663.947 79.9806C597.092 80.0698 532.742 61.1281 471.191 40.0858 409.64 19.0435 348.563-4.51974 282.951-14.5046 240.755-20.9227 192.771-20.3327 159.787 2.9712 128.036 25.3902 118.842 62.4959 114.406 96.7768 111.07 122.566 109.532 149.633 122.026 173.223 130.702 189.599 145.548 203.097 156.013 218.705 192.539 273 170.573 342.357 135.075 397.913 118.431 423.979 98.9334 448.964 86.3495 476.523 73.7656 504.082 68.605 535.332 81.4394 562.534 94.1574 589.494 122.885 609.061 153.714 622.425 216.32 649.617 289.212 655.445 360.145 657.689 517.162 662.668 674.483 652.513 831.383 642.359 889.446 638.604 947.769 634.823 1004.63 623.944 1036.2 617.911 1068.72 608.954 1091.1 589.324 1119.52 564.402 1125.33 523.712 1104.65 494.463 1069.98 445.406 978.544 436.154 953.68 383.075 939.97 353.853 951.793 320.341 969.207 292.174 1006.56 231.738 1070.84 177.603 1071.93 110.007 1072.67 63.5864 1039.24 18.3015 989.303-1.8738 936.965-23.0055 865.602-17.5706 828.933 21.8146 791.226 62.3886 722.976 79.9179 663.947 79.9806Z" fill="#2073D9" fill-rule="evenodd" fill-opacity="0.101961"/><path d="M1006 577.072C1006 577.072 994.949 569.578 983.998 574.91 983.998 574.91 987.37 581.581 1001.23 580.953Z" fill="#2073D9" fill-rule="evenodd"/><path d="M1007.34 577.995C1007.34 577.995 1010.7 590.492 1002.26 598.995 1002.26 598.995 997.176 593.844 1002.26 581.224Z" fill="#2073D9" fill-rule="evenodd"/><path d="M1021 565.278C1021 565.278 1020.19 554.017 995.998 557.755 995.998 557.755 995.883 565.018 1004.38 568.459 1012.87 571.899 1016.76 568.998 1021 565.278Z" fill="#2073D9" fill-rule="evenodd"/><path d="M1023.1 564.995C1023.1 564.995 1033.34 568.407 1024.21 591.995 1024.21 591.995 1017.45 590.432 1016.24 581.042 1015.02 571.653 1018.62 568.416 1023.1 564.995Z" fill="#2073D9" fill-rule="evenodd"/><path d="M1036.98 549.798C1036.98 549.798 1038.41 532.336 1013.04 534.124 1013.04 534.124 1011.22 549.895 1032.51 553.995Z" fill="#2073D9" fill-rule="evenodd"/><path d="M1053 530.211C1053 530.211 1049.62 510.124 1025 516.109 1025 516.109 1024.91 533.475 1048.98 534.995Z" fill="#2073D9" fill-rule="evenodd"/><path d="M1065 509.267C1065 509.267 1059.35 489.086 1035 495.122 1035 495.122 1040.8 513.276 1063.38 512.992Z" fill="#2073D9" fill-rule="evenodd"/><path d="M1077 488.445C1077 488.445 1071.3 468.027 1047 474.136 1047 474.136 1055.11 493.534 1075.39 491.897Z" fill="#2073D9" fill-rule="evenodd"/><path d="M1084 469.337C1084 469.337 1079.62 444.243 1057 449.798 1057 449.798 1063.57 472.627 1082.34 472.995Z" fill="#2073D9" fill-rule="evenodd"/><path d="M1091 446.346C1091 446.346 1085.77 420.992 1063 428.327 1063 428.327 1071.92 452.293 1089.38 449.815Z" fill="#2073D9" fill-rule="evenodd"/><path d="M1095 424.068C1095 424.068 1086.99 399.341 1070 400.008 1070 400.008 1078.18 426.123 1093.58 428.995Z" fill="#2073D9" fill-rule="evenodd"/><path d="M1098 403.246C1098 403.246 1089.1 372.777 1075 375.124 1075 375.124 1081.15 398.417 1097.5 407.995Z" fill="#2073D9" fill-rule="evenodd"/><path d="M1100 377.595C1100 377.595 1091.37 352.98 1077 351.995 1077 351.995 1082.87 376.217 1099.71 383.995Z" fill="#2073D9" fill-rule="evenodd"/><path d="M1101 354.845C1101 354.845 1090.9 329.567 1082 328.995 1082 328.995 1086.39 353.888 1100.13 358.995Z" fill="#2073D9" fill-rule="evenodd"/><path d="M1102 331.989C1102 331.989 1095.84 305.219 1087 302.995 1087 302.995 1088.21 324.898 1101.11 333.995Z" fill="#2073D9" fill-rule="evenodd"/><path d="M1106 303.571C1106 303.571 1099.35 281.378 1092 277.995 1092 277.995 1093.45 304.161 1104.3 308.995Z" fill="#2073D9" fill-rule="evenodd"/><path d="M1108.64 285.128 1110 245.995C1110 245.995 1095.98 275.495 1107.62 291.995Z" fill="#2073D9" fill-rule="evenodd"/><path d="M1119.45 246.888C1119.45 246.888 1129.55 218.577 1132 216.995 1132 216.995 1112.2 235.366 1114.13 258.995Z" fill="#2073D9" fill-rule="evenodd"/><path d="M1037.19 550.052C1037.19 550.052 1055.53 547.725 1054.99 572.889 1054.99 572.889 1038.41 575.512 1033 554.696Z" fill="#2073D9" fill-rule="evenodd"/><path d="M1054.09 528.995C1054.09 528.995 1074.6 528.932 1072.9 554.864 1072.9 554.864 1055.68 557.975 1050 533.897Z" fill="#2073D9" fill-rule="evenodd"/><path d="M1065.64 510.661C1065.64 510.661 1084.15 501.918 1096 524.489 1096 524.489 1078.9 531.771 1064 514.311Z" fill="#2073D9" fill-rule="evenodd"/><path d="M1077.53 488.926C1077.53 488.926 1096.1 479.706 1107 501.56 1107 501.56 1087.66 508.352 1076 492.384Z" fill="#2073D9" fill-rule="evenodd"/><path d="M1083.84 469.925C1083.84 469.925 1102.28 451.948 1117 470.127 1117 470.127 1098.16 484.926 1083 473.931Z" fill="#2073D9" fill-rule="evenodd"/><path d="M1089.67 445.692C1089.67 445.692 1108.32 427.838 1123 446.514 1123 446.514 1102.07 461.181 1089 449.442Z" fill="#2073D9" fill-rule="evenodd"/><path d="M1093 423.797C1093 423.797 1107.23 401.8 1124 406.71 1124 406.71 1109.22 430 1093.16 428.961Z" fill="#2073D9" fill-rule="evenodd"/><path d="M1097.36 403.175C1097.36 403.175 1111.56 374.602 1125 379.576 1125 379.576 1114.76 401.542 1097 407.995Z" fill="#2073D9" fill-rule="evenodd"/><path d="M1098.43 376.606C1098.43 376.606 1113.18 354.524 1127 357.224 1127 357.224 1114.94 379.618 1097 382.995Z" fill="#2073D9" fill-rule="evenodd"/><path d="M1100 353.812C1100 353.812 1111.03 329.163 1120 328.995 1120 328.995 1114.7 353.466 1100.74 357.995Z" fill="#2073D9" fill-rule="evenodd"/><path d="M1102 331.822C1102 331.822 1114.56 307.048 1124 306.995 1124 306.995 1117.57 328.18 1102.41 333.995Z" fill="#2073D9" fill-rule="evenodd"/><path d="M1104 305.415C1104 305.415 1113.3 284.379 1121 281.995 1121 281.995 1116.35 307.636 1105.02 310.995Z" fill="#2073D9" fill-rule="evenodd"/><path d="M1110.06 283.889 1131 251.995C1131 251.995 1125.63 283.456 1107 289.995Z" fill="#2073D9" fill-rule="evenodd"/><path d="M1124.32 248.732C1124.32 248.732 1149.1 231.741 1150 228.995 1150 228.995 1137.4 252.792 1114 256.995Z" fill="#2073D9" fill-rule="evenodd"/><path d="M1125.67 240.995C1125.67 240.995 1153.81 213.968 1161 213.995 1161 213.995 1137.79 215.053 1125 239.554Z" fill="#2073D9" fill-rule="evenodd"/><path d="M1104 308.861 1105.03 308.995C1110.39 267.523 1118.19 242.983 1127 239.976L1126.66 238.995C1117.31 242.206 1109.46 266.372 1104 308.861Z" fill="#444053" fill-rule="evenodd"/><path d="M1096 408.869 1097.54 408.995C1097.86 405.1 1098.11 401.115 1098.28 397.14 1099.74 362.606 1102.01 330.89 1105 307.117L1104.12 305.995C1101.12 329.822 1098.21 362.489 1096.74 397.077 1096.57 401.026 1096.33 404.993 1096 408.869Z" fill="#444053" fill-rule="evenodd"/><path d="M976.84 596.995C977.109 596.879 1004.55 584.662 1033.03 555.53 1049.72 538.468 1063.59 518.874 1074.11 497.481 1087.28 470.751 1095.31 437.904 1098 405.995L1096.38 406.754C1090.33 478.378 1057.62 527.318 1031.61 553.976 1003.41 582.849 976.267 594.941 975.998 595.057Z" fill="#444053" fill-rule="evenodd"/><path d="M1014.34 51.9951 154.657 51.9951C150.427 51.9951 146.998 55.4266 146.998 59.6606L146.998 81.9951 1022 81.9951 1022 59.6606C1022 55.4266 1018.57 51.9951 1014.34 51.9951Z" fill="#3F3D56" fill-rule="evenodd"/><path d="M146.998 84.9951 146.998 586.57C146.998 595.089 153.912 601.995 162.44 601.995L1006.56 601.995C1015.08 601.995 1022 595.089 1022 586.57L1022 84.9951Z" fill="#FFFFFF" fill-rule="evenodd"/><path d="M181 65.5C181 67.433 179.433 69 177.5 69 175.567 69 174 67.433 174 65.5 174 63.567 175.567 62 177.5 62 179.433 62 181 63.567 181 65.5Z" fill="#FA5959" fill-rule="evenodd" fill-opacity="0.8"/><path d="M191 65.5C191 67.433 189.433 69 187.5 69 185.567 69 184 67.433 184 65.5 184 63.567 185.567 62 187.5 62 189.433 62 191 63.567 191 65.5Z" fill="#FED253" fill-rule="evenodd" fill-opacity="0.8"/><path d="M201 65.5C201 67.433 199.433 69 197.5 69 195.567 69 194 67.433 194 65.5 194 63.567 195.567 62 197.5 62 199.433 62 201 63.567 201 65.5Z" fill="#8CCF4D" fill-rule="evenodd" fill-opacity="0.8"/><path d="M239 175 942 175 942 484 239 484Z" fill="#000000" fill-rule="evenodd" fill-opacity="0.0509804"/><path d="M234 170 926 170 926 472 234 472Z" fill="#3F3D56" fill-rule="evenodd"/><path d="M370.498 249.995C332.667 249.995 301.998 280.887 301.998 318.995 301.998 357.103 332.667 387.995 370.498 387.995 408.33 387.995 438.998 357.103 438.998 318.995 438.998 280.887 408.33 249.995 370.498 249.995ZM382.784 320.653 382.784 353.325 358.569 353.325 358.569 320.653C349.735 313.917 347.995 301.243 354.681 292.345 361.368 283.447 373.95 281.694 382.784 288.43 391.618 295.165 393.358 307.838 386.671 316.737 385.56 318.215 384.252 319.534 382.784 320.653Z" fill="#2073D9" fill-rule="evenodd"/><path d="M370.498 249.995C332.667 249.995 301.998 280.887 301.998 318.995 301.998 357.103 332.667 387.995 370.498 387.995 408.33 387.995 438.998 357.103 438.998 318.995 438.998 280.887 408.33 249.995 370.498 249.995ZM382.784 320.653 382.784 353.325 358.569 353.325 358.569 320.653C349.735 313.917 347.995 301.243 354.681 292.345 361.368 283.447 373.95 281.694 382.784 288.43 391.618 295.165 393.358 307.838 386.671 316.737 385.56 318.215 384.252 319.534 382.784 320.653Z" fill="#000000" fill-rule="evenodd" fill-opacity="0.0509804"/><path d="M370.498 229.995C321.621 229.995 281.998 269.618 281.998 318.495 281.998 367.372 321.621 406.995 370.498 406.995 419.375 406.995 458.998 367.372 458.998 318.495 458.998 269.618 419.375 229.995 370.498 229.995ZM386.366 320.623 386.366 362.522 355.078 362.522 355.078 320.623C343.661 311.983 341.409 295.724 350.049 284.306 358.689 272.89 374.949 270.639 386.366 279.279 397.782 287.919 400.034 304.178 391.394 315.594 389.957 317.494 388.264 319.185 386.366 320.623Z" fill="#2073D9" fill-rule="evenodd"/><path d="M941.877 451.191C941.851 450.111 941.716 449.036 941.474 447.984 940.668 444.964 938.852 441.311 935.862 440.4 932.777 439.456 929.795 438.199 926.966 436.648 926.429 427.071 928.631 417.272 926.233 407.99 925.338 404.595 923.861 401.344 923.467 397.869 922.975 393.545 924.156 388.936 922.429 384.951 921.069 381.807 918.079 379.591 914.867 378.43 911.654 377.269 908.19 376.956 904.78 376.644 900.484 376.295 886.577 374.651 881.726 378.484L881.726 378.484C881.391 378.743 881.09 379.043 880.831 379.377L880.831 379.377C880.724 379.525 880.628 379.68 880.545 379.842L880.5 379.913C880.402 380.099 880.322 380.294 880.258 380.494L880.258 380.494C880.19 380.713 880.14 380.937 880.106 381.164 880.106 381.235 880.106 381.307 880.106 381.378 880.106 381.45 880.106 381.691 880.106 381.852L880.106 382.093C880.106 382.254 880.106 382.414 880.106 382.584 880.106 382.754 880.106 382.709 880.106 382.772 880.169 383.576 880.285 384.38 880.285 385.175 880.295 385.57 880.258 385.966 880.178 386.354 879.88 387.407 879.375 388.392 878.692 389.248L878.692 389.248 878.531 389.48C878.432 389.623 878.334 389.757 878.245 389.9 878.155 390.043 878.083 390.151 878.012 390.276 877.94 390.401 877.869 390.481 877.806 390.597 877.719 390.745 877.642 390.896 877.573 391.053 877.573 391.142 877.475 391.223 877.439 391.312 877.327 391.553 877.237 391.805 877.171 392.062 876.961 392.838 876.942 393.653 877.117 394.438 877.358 395.441 877.773 396.393 878.343 397.252 878.567 397.619 878.808 397.976 879.059 398.333L879.685 399.182C879.568 400.011 879.505 400.846 879.497 401.683 879.498 407.351 882.104 412.705 886.568 416.208 886.922 419.981 886.884 423.78 886.451 427.545 886.371 428.331 886.272 429.126 886.165 429.912 886.058 430.698 885.977 431.216 885.87 431.868 884.56 432.056 883.225 431.955 881.959 431.573 881.374 431.314 880.777 431.084 880.169 430.886 877.564 430.234 874.906 432.824 872.329 432.038 872.329 432.163 872.257 432.279 872.213 432.395 871.674 432.061 871.056 431.879 870.422 431.868 868.892 431.797 867.648 430.689 866.538 429.644L863.129 426.437C862.907 426.24 862.708 426.019 862.538 425.776 862.354 425.428 862.217 425.059 862.126 424.677 861.553 422.828 860.166 421.354 858.824 419.952 858.57 419.632 858.232 419.388 857.848 419.246 857.7 419.223 857.549 419.223 857.401 419.246 857.31 419.121 857.211 419.002 857.105 418.888 856.874 418.623 856.626 418.372 856.363 418.138 854.734 416.637 854.573 415.351 853.159 413.671 851.925 412.07 850.807 410.383 849.812 408.624 849.695 407.686 849.534 406.722 849.337 405.748 848.886 403.519 848.23 401.336 847.377 399.227L845.587 395.269 845.381 395.475C844.084 393.545 842.697 392.491 841.453 392.741 839.367 393.17 838.338 397.208 838.669 402.487L839.385 407.847C839.385 407.981 839.448 408.115 839.484 408.249 839.355 408.884 839.288 409.531 839.287 410.179 839.287 410.929 839.985 411.483 840.352 412.153 840.939 413.06 841.25 414.119 841.247 415.199 841.202 415.583 841.086 415.949 841.068 416.325 841.116 417.164 841.409 417.971 841.909 418.647L846.384 426.151 847.279 427.723 847.332 427.795C847.615 428.343 848.026 428.816 848.532 429.171 848.707 431.049 849.207 432.884 850.008 434.593 850.161 434.932 850.331 435.254 850.51 435.576 851.712 437.55 853.129 439.386 854.734 441.052L856.864 443.437C858.967 445.777 861.07 448.127 863.352 450.289 864.169 451.156 865.157 451.846 866.252 452.316 867.345 452.752 868.587 452.572 869.51 451.843 869.51 452.951 869.51 454.058 869.51 455.166 870.541 455.229 871.326 456.115 871.262 457.144 871.241 457.489 871.123 457.822 870.924 458.105 869.044 462.92 867.147 467.78 864.301 472.094 866.31 473.282 868.173 474.699 869.85 476.32 870.938 477.524 871.906 478.832 872.74 480.224 872.821 480.885 872.884 481.537 872.919 482.189 873.582 492.837 869.456 503.405 865.76 513.553 864.695 516.43 863.531 519.44 863.621 522.433 862.919 522.864 862.25 523.345 861.616 523.871 862.35 525.783 862.064 527.489 861.983 529.535 861.956 530.761 861.705 531.972 861.24 533.108 860.851 533.895 860.421 534.661 859.951 535.404 857.633 539.486 857.123 544.337 856.658 549 856.38 551.814 857.472 555.253 856.193 557.772 853.982 562.096 852.022 566.705 851.718 571.511 851.707 572.593 851.569 573.669 851.306 574.718 851.029 575.612 850.536 576.371 850.286 577.246 850.028 578.419 849.967 579.627 850.107 580.82 850.277 585.101 849.64 589.378 848.227 593.424 847.109 596.614 845.874 600.026 846.751 603.305 844.591 605.568 843.259 608.491 842.965 611.603 842.942 612.399 842.846 613.192 842.679 613.971 842.405 614.767 842.045 615.53 841.605 616.249 839.803 619.524 838.959 623.238 839.17 626.968 836.485 630.604 835.143 635.089 834.346 639.546 833.55 644.004 833.201 648.542 832.181 652.946 830.82 658.771 828.359 664.657 827.876 670.625 824.976 672.474 823.723 676.056 823.168 679.442 822.614 682.828 822.524 686.383 821.101 689.509 820.367 691.135 819.311 692.591 818.613 694.253 818.123 695.576 817.764 696.943 817.539 698.335 817.109 700.515 816.734 702.945 817.262 705.035 816.503 705.838 815.617 706.511 814.639 707.027 814.783 706.474 814.899 705.92 814.997 705.357 812.688 707.447 808.5 706.715 806.656 709.225 805.505 710.907 805.902 713.198 807.551 714.397 808.128 714.748 808.751 715.015 809.404 715.192 813.879 716.622 818.479 718.06 823.079 717.301 823.623 717.242 824.149 717.075 824.627 716.809 825.226 716.37 825.718 715.802 826.068 715.148 826.757 714.058 827.446 712.968 828.126 711.878 829.775 712.369 831.451 712.76 833.147 713.048 833.317 714.478 833.443 715.907 833.505 717.336 834.4 717.515 835.599 717.568 836.02 716.738 836.148 716.423 836.2 716.084 836.172 715.746 836.172 715.112 836.262 714.272 836.315 713.415L836.494 713.415C839.225 713.524 841.942 712.976 844.415 711.816 843.457 703.901 846.616 696.165 849.355 688.679 852.246 680.8 854.725 672.778 857.222 664.756 859.012 659.11 860.99 653.643 862.744 647.988 864.952 640.842 867.168 633.695 869.393 626.549 870.36 623.404 871.335 620.295 872.445 617.169 874.781 610.842 877.554 604.685 880.741 598.74 881.636 597.051 882.531 595.381 883.265 593.63 884.16 591.495 884.796 589.262 885.512 587.055 887.072 582.528 888.95 578.116 891.132 573.852 891.195 573.736 891.239 573.629 891.302 573.521 892.027 576.478 892.752 579.48 893.235 582.454 893.889 586.102 893.94 589.832 893.387 593.496 892.958 595.988 892.143 598.454 892.242 600.982 892.376 604.475 894.247 607.646 895.168 611.014 895.763 613.534 896.098 616.108 896.171 618.696 896.421 622.716 898.605 627.228 897.066 630.953 892.278 642.753 894.596 656.082 891.866 668.472 890.461 674.832 886.156 680.809 886.496 687.312 886.735 691.928 887.141 696.531 887.713 701.123 887.851 702.572 888.23 703.987 888.832 705.312 889.189 706.009 889.599 706.678 890.058 707.313 889.664 707.465 889.333 707.867 889.047 708.716 888.313 710.949 889.047 713.718 891.034 714.969 891.843 715.401 892.716 715.702 893.62 715.862 894.837 716.207 896.096 716.382 897.361 716.38 897.755 716.359 898.146 716.312 898.533 716.237 899.917 716.818 901.33 717.325 902.767 717.756 902.767 718.122 902.838 718.489 902.883 718.855 902.888 719.242 903.057 719.609 903.348 719.864 903.572 719.968 903.819 720.012 904.064 719.989L908.924 719.989C908.924 719.587 908.924 719.177 908.924 718.775 910.049 718.892 911.17 718.528 912.012 717.774 912.442 717.227 912.747 716.593 912.906 715.916 914.231 711.431 915.547 706.944 916.853 702.454 918.42 697.49 919.072 692.284 918.778 687.089 917.05 670.625 920.845 654.107 919.61 637.599 918.867 627.677 919.378 617.7 921.131 607.905 921.534 605.69 922.026 603.439 922.205 601.232 922.599 597.069 922.116 592.862 922.411 588.726 922.51 587.278 922.706 585.84 922.885 584.402 924.111 575.475 924.754 566.478 924.81 557.469 924.782 554.483 924.596 551.501 924.255 548.535 925.188 548.298 926.035 547.803 926.698 547.106 927.494 546.07 927.289 544.614 927.28 543.292 927.28 540.129 928.613 537.146 929.687 534.162 931.065 530.046 932.195 525.852 933.07 521.602 933.995 518.177 934.499 514.652 934.574 511.105 934.574 510.748 934.556 510.391 934.52 510.034 934.857 509.8 935.138 509.495 935.343 509.14 935.577 508.617 935.722 508.058 935.773 507.488 936.095 505.21 936.426 502.923 936.748 500.636 936.987 498.998 937.223 497.364 937.455 495.731L940.301 475.909C940.543 474.185 940.794 472.47 941.035 470.754L941.778 465.627C941.859 465.019 941.948 464.412 942.011 463.84 944.194 460.195 942.109 455.336 941.877 451.191ZM918.133 525.407C917.077 522.906 916.093 520.342 916.343 517.644L916.245 517.644C916.48 516.815 916.44 515.93 916.128 515.125 915.851 514.473 915.368 513.919 915.072 513.267 914.755 512.471 914.591 511.623 914.589 510.766 914.367 505.333 914.797 499.893 915.869 494.561 915.985 493.936 916.11 493.302 916.227 492.676 916.602 492.46 916.945 492.192 917.247 491.881 917.718 491.345 918.107 490.743 918.402 490.095 919.413 488.067 920.335 486.003 921.185 483.904 921.462 483.225 921.865 482.439 922.554 482.269 922.411 487.495 922.948 492.828 920.818 497.545 920.414 498.305 920.113 499.116 919.923 499.957 919.726 501.288 920.281 502.637 920.084 503.959 919.986 504.647 919.69 505.281 919.574 505.96 919.394 506.639 919.592 507.362 920.093 507.854 920.211 507.937 920.341 508.003 920.478 508.05 920.424 508.408 920.379 508.774 920.344 509.122 920.272 509.855 920.236 510.543 920.192 510.971 919.986 513.156 919.905 515.352 919.95 517.546 919.95 519.914 920.039 522.281 920.004 524.693 920.037 525.385 919.92 526.077 919.664 526.721 919.486 527.053 919.256 527.354 918.983 527.614 918.724 526.81 918.437 526.104 918.133 525.407Z" fill="#808080" fill-rule="evenodd"/><path d="M849.4 406.369C850.984 414.097 850.055 420.815 847.325 421.375 844.596 421.934 841.1 416.122 839.516 408.394 837.933 400.666 838.862 393.948 841.591 393.389 844.32 392.829 847.816 398.641 849.4 406.369Z" fill="#FBBEBE" fill-rule="evenodd"/><path d="M889.275 708.896C888.546 711.099 889.275 713.852 891.25 715.051 892.05 715.477 892.912 715.777 893.804 715.939 895.011 716.279 896.26 716.45 897.514 716.446 899.053 716.374 900.53 715.77 902.07 715.557 902.247 715.513 902.435 715.538 902.594 715.628 902.751 715.795 902.822 716.024 902.79 716.25 902.807 717.123 902.872 717.995 902.986 718.861 902.989 719.247 903.157 719.613 903.449 719.865 903.671 719.968 903.917 720.012 904.16 719.989L908.983 719.989C909.092 715.76 908.628 711.536 907.604 707.43 907.537 707.116 907.417 706.816 907.248 706.542 906.838 706.094 906.301 705.785 905.708 705.654 904.53 705.164 903.256 704.942 901.98 705.006 900.424 705.21 899.124 706.213 897.799 707.048 896.473 707.883 894.667 708.621 893.057 708.194 891.446 707.768 890.103 706.427 889.275 708.896Z" fill="#3F3D56" fill-rule="evenodd"/><path d="M817.754 704.869C816.447 706.356 814.845 707.515 813.064 708.259L812.276 708.661C812.167 708.704 812.073 708.784 812.01 708.888 811.979 709.032 812.011 709.182 812.096 709.299 813.444 711.516 816.014 712.511 818.388 711.732 818.898 711.597 819.372 711.334 819.769 710.967 820.422 710.143 820.797 709.109 820.832 708.032 821.091 706.92 821.047 705.754 820.703 704.668 819.511 701.815 819.074 703.109 817.754 704.869Z" fill="#FBBEBE" fill-rule="evenodd"/><path d="M836.778 716.242C836.807 716.578 836.754 716.915 836.623 717.227 836.192 718.044 834.993 717.999 834.059 717.822 833.917 714.811 833.541 711.814 832.933 708.858 831.156 708.778 829.875 710.411 828.922 711.876L826.469 715.648C826.113 716.297 825.613 716.861 825.003 717.298 824.513 717.558 823.975 717.724 823.419 717.787 818.732 718.541 813.998 717.112 809.475 715.692 808.808 715.519 808.171 715.256 807.579 714.911 805.902 713.717 805.497 711.451 806.664 709.781 808.559 707.296 812.817 708.006 815.179 705.947 814.933 707.395 814.527 708.814 813.97 710.18 817.129 709.719 819.254 706.914 821.799 705.041 822.438 704.515 823.209 704.161 824.033 704.012 824.65 703.961 825.271 704.025 825.864 704.198 828.8 704.914 831.545 706.224 833.922 708.041 834.883 708.778 836.385 709.816 836.806 710.952 837.254 712.31 836.778 714.796 836.778 716.242Z" fill="#3F3D56" fill-rule="evenodd"/><path d="M916 402.5C916 412.717 907.717 421 897.5 421 887.283 421 879 412.717 879 402.5 879 392.283 887.283 384 897.5 384 907.717 384 916 392.283 916 402.5Z" fill="#FBBEBE" fill-rule="evenodd"/><path d="M933.998 511.795C933.925 515.313 933.427 518.809 932.517 522.207 931.65 526.427 930.53 530.591 929.165 534.677 928.109 537.643 926.788 540.618 926.797 543.762 926.797 545.072 927.009 546.524 926.211 547.557 925.501 548.282 924.604 548.797 923.622 549.044 922.627 549.309 921.817 550.033 921.44 550.995 920.607 549.745 919.983 548.367 919.595 546.916 918.005 542.023 916.526 537.103 915.16 532.156 914.907 531.578 914.953 530.912 915.284 530.375 915.51 530.178 915.772 530.03 916.056 529.938 916.965 529.566 917.798 529.029 918.513 528.353 918.848 528.054 919.125 527.695 919.329 527.293 919.587 526.654 919.705 525.969 919.675 525.28 919.675 522.92 919.675 520.568 919.613 518.208 919.575 516.028 919.659 513.849 919.861 511.679 919.861 511.251 919.941 510.565 920.012 509.835 920.145 508.437 920.411 506.815 921.165 506.272 922.291 505.515 925.661 506.53 926.938 506.709 929.138 507.011 931.373 507.368 933.519 507.786 933.832 509.099 933.992 510.444 933.998 511.795Z" fill="#3F3D56" fill-rule="evenodd"/><path d="M859.947 423.198C859.206 424.605 857.428 425.282 856.058 426.17L851.364 429.231C850.73 429.773 849.891 430.046 849.04 429.987 848.268 429.716 847.643 429.161 847.308 428.448 847.311 428.424 847.311 428.402 847.308 428.378L846.336 426.83 841.706 419.46C841.191 418.8 840.892 418.01 840.845 417.191 840.845 416.813 840.984 416.461 841.021 416.083 841.034 415.02 840.711 413.979 840.095 413.092 839.725 412.433 838.984 411.888 839.003 411.149 838.967 410.178 839.143 409.21 839.521 408.308 840.007 407.472 840.704 406.765 841.549 406.25 841.984 405.951 842.429 405.67 842.891 405.371 843.137 405.211 843.41 405.093 843.697 405.019 844.466 404.869 845.225 405.476 846.003 405.502 849.345 407.631 850.632 411.659 853.262 414.561 854.743 416.215 854.891 417.481 856.567 418.959 856.836 419.187 857.095 419.433 857.345 419.689 857.677 420.031 857.957 420.417 858.178 420.832 858.484 421.588 860.327 422.476 859.947 423.198Z" fill="#3F3D56" fill-rule="evenodd"/><path d="M891.395 420.653C892.739 423.483 893.785 426.591 893.397 429.699 893.318 430.541 893.05 431.355 892.613 432.08 891.314 434.065 888.591 434.424 886.22 434.541 885.211 434.457 884.211 434.78 883.443 435.44 882.791 436.383 882.862 437.646 883.615 438.512 884.376 439.322 885.323 439.938 886.373 440.308 890.124 441.952 894.172 443.309 898.248 442.932 900.141 442.752 901.98 442.204 903.865 441.925 905.919 441.704 907.983 441.589 910.05 441.584 912.502 441.494 914.945 441.252 917.389 441.009L923.862 440.371C924.216 440.377 924.559 440.252 924.827 440.021 925.305 439.464 924.692 438.647 924.097 438.224 920.662 435.691 916.289 433.948 914.332 430.139 913.431 428.343 913.151 426.205 912.484 424.264 911.817 422.324 910.753 420.572 910.338 418.596 910.117 416.862 910.017 415.115 910.041 413.368 910.063 411.605 909.419 409.899 908.237 408.589 906.948 407.394 905.082 407.088 903.333 407.017 899.023 406.828 894.434 407.852 891.377 410.879 890.557 411.697 889.854 412.676 889.006 413.413 888.159 414.149 887.005 414.365 887.564 415.335 888.123 416.305 889.222 416.907 889.818 417.761 890.42 418.681 890.947 419.649 891.395 420.653Z" fill="#FBBEBE" fill-rule="evenodd"/><path d="M927.611 446.868C926.492 453.719 924.672 460.437 922.181 466.915 920.928 469.839 919.862 472.842 918.987 475.901 918.304 478.66 918.437 481.614 917.807 484.381 917.026 487.825 916.245 491.277 915.615 494.747 914.558 500.046 914.135 505.453 914.355 510.852 914.357 511.703 914.52 512.544 914.834 513.334 915.127 513.975 915.597 514.527 915.872 515.185 916.289 516.354 916.198 517.644 915.624 518.744 915.169 519.763 914.551 520.7 913.796 521.52 905.527 523.994 896.68 523.184 888.065 523.709 880.124 524.19 872.094 525.827 864.268 524.466 863.38 520.906 864.862 517.178 866.131 513.708 869.813 503.627 873.886 493.128 873.229 482.566 873.16 481.334 873.022 480.107 872.812 478.891 871.526 471.408 872.928 463.658 875.173 456.406 876.566 451.886 876.503 447.073 876.184 442.366 876.026 440.837 876.005 439.298 876.122 437.766 876.251 436.201 876.83 434.707 877.79 433.468 877.79 433.406 877.87 433.343 877.914 433.281 877.959 433.219 878.305 433.228 878.58 433.281L878.58 433.281C878.722 433.342 878.881 433.342 879.023 433.281L879.121 433.219C879.198 433.164 879.301 433.164 879.378 433.219 879.582 433.343 879.698 433.771 880.141 433.851 880.797 433.95 881.457 434.013 882.12 434.038 882.917 434.062 883.708 434.175 884.48 434.376L884.587 434.376C885.74 434.57 886.925 434.47 888.029 434.082 888.764 433.898 889.474 433.623 890.141 433.263 890.336 433.05 891.561 432.854 891.809 432.703 892.617 432.213 892.439 429.918 892.608 428.975 892.701 428.029 892.924 427.101 893.273 426.216 894.094 424.891 895.516 424.061 897.071 424.001 898.599 423.964 900.126 424.101 901.623 424.41 904.932 424.882 908.322 424.802 911.569 425.567 913.202 425.949 914.985 426.528 916.485 425.78 916.893 425.878 916.955 426.234 916.955 426.67 916.917 427.085 916.833 427.493 916.706 427.889 916.139 430.345 918.064 432.605 919.839 434.384 920.588 435.224 921.473 435.93 922.456 436.475 923.343 436.885 924.231 437.054 925.118 437.499 925.837 437.883 926.447 438.444 926.893 439.127 927.404 439.911 927.749 440.793 927.904 441.716 928.095 443.438 927.996 445.179 927.611 446.868Z" fill="#3F3D56" fill-rule="evenodd"/><path d="M927.616 446.875C926.49 453.819 924.659 460.628 922.151 467.194 920.89 470.158 919.817 473.201 918.936 476.303 918.249 479.099 918.383 482.093 917.749 484.898 916.963 488.388 916.177 491.887 915.543 495.404 915.355 495.513 915.159 495.612 914.963 495.702 913.852 496.238 912.674 496.62 911.462 496.838 909.285 497.104 907.08 497.031 904.925 496.622L892.182 494.899C887.092 494.205 881.672 493.366 877.895 489.885 875.796 487.973 874.421 485.448 872.912 483.013 872.842 481.764 872.702 480.521 872.492 479.288 871.197 471.703 872.608 463.848 874.867 456.498 876.27 451.916 876.207 447.037 875.886 442.266 875.727 440.717 875.705 439.157 875.823 437.604 875.953 436.018 876.536 434.504 877.502 433.247 877.763 433.17 878.028 433.11 878.297 433.067L878.297 433.067C878.476 433.03 878.658 433.007 878.841 432.995L879.1 432.995C879.401 432.996 879.7 433.033 879.993 433.103 880.601 433.299 881.198 433.531 881.779 433.798L881.886 433.798C882.652 434.052 883.456 434.168 884.262 434.14 885.44 434.14 886.655 433.951 887.834 433.87 889.29 433.64 890.78 433.91 892.066 434.636 892.897 435.31 893.684 436.036 894.424 436.81 895.318 437.519 896.322 438.071 897.398 438.442 905.084 441.406 913.612 441.225 921.169 437.937 921.895 437.521 922.718 437.309 923.553 437.324 924.17 437.446 924.754 437.698 925.268 438.064 925.803 438.379 926.33 438.686 926.875 438.965 927.39 439.76 927.737 440.654 927.893 441.59 928.097 443.355 928.004 445.141 927.616 446.875Z" fill="#000000" fill-rule="evenodd" fill-opacity="0.101961"/><path d="M935.881 440.633C932.287 439.537 928.833 438.024 925.59 436.125 925.069 435.762 924.48 435.51 923.857 435.386 923.011 435.376 922.177 435.587 921.438 435.999 913.802 439.285 905.184 439.466 897.417 436.504 896.332 436.129 895.316 435.577 894.411 434.872 893.66 434.101 892.864 433.375 892.027 432.698 889.058 430.778 884.95 433.032 881.628 431.797 881.039 431.533 880.437 431.302 879.823 431.102 877.196 430.444 874.524 433.059 871.942 432.266 870.982 434.873 870.271 437.567 869.821 440.309 869.453 443.458 869.257 446.625 869.234 449.795 869.234 451.698 869.144 453.6 869.234 455.503 869.878 455.608 870.447 455.977 870.805 456.522 871.045 457.158 870.992 457.867 870.66 458.461 868.774 463.303 866.86 468.199 863.998 472.536 866.015 473.737 867.887 475.165 869.577 476.793 872.736 480.129 874.289 484.809 877.701 487.893 881.547 491.364 887.026 492.212 892.145 492.897L905.026 494.62C907.208 495.027 909.439 495.104 911.643 494.845 912.866 494.622 914.053 494.237 915.173 493.7 915.905 493.394 916.572 492.954 917.141 492.401 917.617 491.861 918.009 491.253 918.305 490.598 919.325 488.56 920.255 486.477 921.113 484.367 921.411 483.619 921.862 482.744 922.675 482.681 927.459 478.371 931.972 473.952 936.757 469.642 938.68 468.05 940.404 466.233 941.893 464.232 944.267 460.724 942.11 455.755 941.893 451.517 941.867 450.433 941.731 449.355 941.487 448.298 940.711 445.223 938.887 441.544 935.881 440.633Z" fill="#2073D9" fill-rule="evenodd"/><path d="M859.95 422.852C859.25 424.33 857.57 425.042 856.274 425.976L851.838 429.192C851.239 429.762 850.445 430.049 849.641 429.987 848.912 429.702 848.322 429.119 848.005 428.369 848.005 428.157 848.005 427.926 848.005 427.704 847.971 426.956 848.066 426.208 848.285 425.495 848.719 424.45 849.393 423.536 850.245 422.833 851.893 421.185 853.852 419.926 855.994 419.136 856.329 418.999 856.692 418.961 857.045 419.025 857.18 419.063 857.311 419.122 857.43 419.201 857.743 419.561 858.008 419.966 858.217 420.402 858.567 421.16 860.309 422.094 859.95 422.852Z" fill="#000000" fill-rule="evenodd" fill-opacity="0.101961"/><path d="M870.086 432.502C868.614 432.431 867.411 431.337 866.338 430.297L863.056 427.167C862.836 426.977 862.644 426.755 862.485 426.509 862.307 426.163 862.174 425.796 862.087 425.415 861.391 423.619 860.301 422.013 858.901 420.721 858.657 420.403 858.329 420.162 857.957 420.027 857.605 419.961 857.242 419.998 856.91 420.134 854.789 420.892 852.851 422.104 851.222 423.691 850.379 424.366 849.713 425.247 849.282 426.251 849.065 426.936 848.971 427.656 849.005 428.376 849.025 430.725 849.539 433.042 850.512 435.169 850.659 435.498 850.823 435.827 850.996 436.147 852.151 438.108 853.517 439.931 855.065 441.58L857.126 443.945C859.152 446.275 861.178 448.604 863.377 450.747 864.165 451.61 865.12 452.295 866.182 452.757 867.268 453.212 868.511 453.006 869.402 452.223 869.817 451.73 870.129 451.155 870.32 450.534 871.653 446.977 872.917 443.278 872.995 439.446 873.014 437.911 872.95 436.377 872.805 434.849 872.675 433.231 871.558 432.6 870.086 432.502Z" fill="#2073D9" fill-rule="evenodd"/><path d="M924.998 557.347C924.946 566.374 924.303 575.388 923.073 584.331 922.893 585.776 922.695 587.221 922.596 588.665 922.299 592.856 922.785 597.065 922.389 601.229 922.182 603.481 921.714 605.715 921.319 607.914 919.56 617.727 919.047 627.721 919.789 637.662 921.031 654.201 917.225 670.748 918.952 687.242 919.162 690.449 918.984 693.67 918.422 696.835 918.099 698.798 917.633 700.736 917.027 702.632 915.713 707.125 914.394 711.612 913.068 716.092 912.913 716.773 912.605 717.411 912.169 717.959 911.24 718.759 910.011 719.123 908.795 718.955 903.604 718.793 898.718 716.559 894.004 714.378 893.461 714.165 892.96 713.861 892.519 713.481 891.539 712.467 891.62 710.87 891.188 709.533 890.756 708.195 889.586 706.939 888.92 705.566 888.373 704.268 888.041 702.888 887.94 701.483 887.34 696.889 886.932 692.276 886.716 687.646 886.374 681.131 890.693 675.136 892.114 668.801 894.813 656.345 892.528 642.992 897.324 631.174 898.835 627.441 896.64 622.918 896.424 618.898 896.346 616.305 896.008 613.725 895.416 611.198 894.516 607.824 892.618 604.648 892.483 601.148 892.384 598.617 893.203 596.149 893.626 593.655 894.187 589.984 894.135 586.245 893.473 582.59 892.996 579.575 892.267 576.56 891.539 573.616L891.377 573.948C889.185 578.222 887.299 582.645 885.735 587.185 885.016 589.383 884.386 591.627 883.486 593.762 882.748 595.557 881.84 597.199 880.949 598.886 877.754 604.836 874.973 610.997 872.627 617.328 871.511 620.432 870.531 623.609 869.559 626.723L862.892 648.26C861.093 653.922 859.122 659.396 857.359 665.05 854.867 673.126 852.375 681.131 849.478 689.028 846.779 696.521 843.567 704.283 844.529 712.198 842.049 713.361 839.324 713.912 836.585 713.804 831.948 713.395 827.399 712.294 823.09 710.538 821.371 709.9 819.59 709.182 818.429 707.774 816.432 705.342 816.927 701.779 817.53 698.683 817.756 697.288 818.118 695.918 818.609 694.591 819.293 692.94 820.409 691.477 821.11 689.844 822.523 686.712 822.613 683.168 823.171 679.767 823.728 676.366 824.97 672.776 827.885 670.928 828.38 664.951 830.845 659.055 832.204 653.213 833.229 648.789 833.571 644.24 834.381 639.753 835.191 635.266 836.495 630.779 839.212 627.145 838.998 623.397 839.846 619.665 841.659 616.376 842.098 615.654 842.456 614.887 842.73 614.088 842.897 613.309 842.995 612.516 843.018 611.719 843.316 608.601 844.652 605.672 846.815 603.4 845.915 600.125 847.166 596.706 848.29 593.529 849.706 589.476 850.348 585.193 850.179 580.903 850.04 579.705 850.098 578.493 850.35 577.314 850.602 576.416 851.097 575.653 851.385 574.792 851.641 573.737 851.777 572.656 851.79 571.57 852.141 566.716 854.111 562.139 856.288 557.805 857.584 555.274 856.486 551.837 856.756 549.019 857.224 544.335 857.737 539.489 860.067 535.406 860.499 534.635 860.967 533.899 861.354 533.1 861.822 531.959 862.075 530.743 862.1 529.511 862.181 527.456 862.469 525.75 861.732 523.839 866.545 519.846 873.113 518.724 879.375 518.455 885.636 518.186 891.97 518.751 898.097 517.423 899.897 517.019 901.696 516.463 903.594 516.194 907.904 515.565 912.276 516.544 916.532 517.513 916.235 520.205 917.225 522.789 918.332 525.293 922.652 535.434 924.918 546.328 924.998 557.347Z" fill="#33313F" fill-rule="evenodd"/><path d="M903.998 559.995 893.19 582.995C892.691 580.004 891.929 577.014 891.167 574.094L890.998 574.424 890.998 573.943 896.887 561.686Z" fill="#000000" fill-rule="evenodd" fill-opacity="0.101961"/><path d="M933.998 511.298C933.412 511.702 932.713 511.942 931.983 511.99 930.863 512.027 929.745 511.886 928.677 511.575L920.723 509.742C920.474 509.686 920.231 509.606 919.998 509.506 920.131 508.228 920.396 506.745 921.147 506.249 922.27 505.557 925.628 506.485 926.901 506.648 929.093 506.925 931.32 507.25 933.459 507.633 933.791 508.832 933.972 510.061 933.998 511.298Z" fill="#000000" fill-rule="evenodd" fill-opacity="0.101961"/><path d="M941.286 457.865C941.459 458.611 941.706 459.348 941.852 460.103 942.098 461.956 942.033 463.835 941.66 465.667L940.911 470.809 940.161 475.978 937.264 495.87 936.551 500.796 935.545 507.673C935.498 508.246 935.35 508.805 935.107 509.327 934.499 510.319 933.423 510.944 932.245 510.99 931.088 511.026 929.932 510.871 928.827 510.532L920.6 508.5C920.24 508.437 919.898 508.299 919.595 508.095 919.083 507.604 918.881 506.878 919.065 506.199 919.184 505.516 919.485 504.877 919.586 504.194 919.787 502.864 919.22 501.497 919.421 500.176 919.619 499.335 919.926 498.522 920.335 497.758 923.078 491.798 921.487 484.841 922.419 478.369 923.259 473.275 925.447 468.488 928.763 464.49 930.81 461.965 933.16 459.696 935.765 457.73 936.788 456.948 938.415 455.339 939.704 455.033 941.359 454.691 941.011 456.732 941.286 457.865Z" fill="#2073D9" fill-rule="evenodd"/><path d="M880.263 381.501C879.679 383.364 880.591 385.415 880.175 387.314 879.723 389.409 877.756 390.864 877.198 392.968 876.312 396.172 879.023 399.092 881.007 401.755 888.36 411.642 887.394 425.328 884.879 437.39 882.854 447.067 880.055 456.566 876.507 465.792 875.4 468.659 874.177 471.57 871.998 473.718 876.073 472.546 880.405 471.366 884.489 472.502 889.662 473.94 894.127 478.972 899.371 477.827 902.525 477.126 904.739 474.321 907.574 472.768 912.889 469.901 919.294 471.703 925.22 472.626 926.498 472.928 927.834 472.86 929.074 472.431 930.022 471.92 930.826 471.178 931.413 470.274 934.058 466.875 935.642 462.768 935.966 458.47 936.249 454.14 934.665 449.897 931.616 446.816 930.358 445.627 928.852 444.668 927.887 443.266 926.948 441.628 926.445 439.776 926.425 437.887 925.725 428.124 928.099 418.157 925.654 408.713 924.769 405.349 923.325 402.127 922.935 398.684 922.448 394.397 923.608 389.808 921.907 385.885 920.57 382.77 917.62 380.56 914.44 379.424 911.259 378.288 907.858 377.968 904.483 377.649 899.628 377.24 882.292 375.155 880.263 381.501Z" fill="#33313F" fill-rule="evenodd"/><path d="M884.439 437.516C882.397 447.219 879.575 456.743 875.998 465.995 876.618 464.771 877.138 463.484 877.632 462.206 881.232 452.918 884.07 443.355 886.118 433.611 888.677 421.458 889.656 407.697 882.203 397.734 880.407 395.357 878.099 392.783 878.18 389.995 877.517 390.839 877 391.787 876.654 392.801 875.756 396.027 878.503 398.967 880.515 401.648 887.967 411.593 886.989 425.372 884.439 437.516Z" fill-rule="evenodd"/><path d="M880.247 385.995C881.006 385.104 881.572 384.08 881.911 382.982 882.058 381.654 882.019 380.314 881.798 378.995 881.069 379.514 880.522 380.227 880.228 381.042 879.67 382.625 880.313 384.341 880.247 385.995Z" fill-rule="evenodd"/><path d="M933.967 466.952C933.372 467.808 932.556 468.51 931.594 468.991 930.338 469.407 928.98 469.471 927.685 469.176 921.672 468.334 915.102 466.598 909.782 469.319 906.897 470.785 904.659 473.447 901.45 474.121 896.139 475.233 891.609 470.456 886.36 469.066 882.639 468.098 878.721 468.898 874.973 469.909 874.228 471.397 873.223 472.759 871.998 473.936 876.132 472.824 880.527 471.703 884.671 472.781 889.919 474.146 894.449 478.923 899.77 477.836 902.969 477.17 905.216 474.508 908.092 473.034 913.485 470.313 919.983 472.023 925.995 472.899 927.291 473.186 928.646 473.122 929.905 472.714 930.866 472.23 931.683 471.526 932.278 470.667 933.906 468.654 935.164 466.399 935.998 463.995 935.398 465.026 934.719 466.014 933.967 466.952Z" fill-rule="evenodd"/></g></svg>