<svg width="657" height="458" xmlns="http://www.w3.org/2000/svg" xmlns:xlink="http://www.w3.org/1999/xlink" overflow="hidden"><defs><clipPath id="clip0"><rect x="309" y="191" width="657" height="458"/></clipPath></defs><g clip-path="url(#clip0)" transform="translate(-309 -191)"><path d="M692.812 263.844C651.013 262.392 611.204 248.912 573.183 234.161 535.162 219.409 497.516 203.064 456.719 195.282 430.478 190.255 400.473 189.546 379.328 203.6 358.984 217.151 352.409 240.478 348.87 262.14 346.216 278.447 344.646 295.598 351.938 310.859 356.995 321.455 365.978 330.36 372.191 340.51 393.801 375.82 378.527 419.364 355.102 453.842 344.123 470.013 331.374 485.461 322.894 502.664 314.414 519.867 310.494 539.607 317.908 557.171 325.265 574.594 342.786 587.655 361.761 596.85 400.311 615.525 445.72 620.874 490.038 623.9 588.089 630.605 686.67 627.701 784.98 624.797 821.366 623.72 857.908 622.629 893.7 617.009 913.579 613.886 934.104 608.93 948.532 597.005 966.848 581.821 971.388 556.107 959.117 537.071 938.528 505.136 881.617 497.198 867.208 462.927 859.284 444.066 867.421 423.049 878.93 405.555 903.627 368.019 945.019 335.096 947.202 292.191 948.7 262.727 928.802 233.218 898.034 219.274 865.781 204.658 821.063 206.497 797.283 230.689 772.767 255.539 729.715 265.121 692.812 263.844Z" fill="#2073D9" fill-rule="evenodd" fill-opacity="0.101961"/><path d="M364.643 403.605C364.643 403.605 316.471 383.301 310.136 419.912 310.136 419.912 306.842 425.621 311.425 430.335 311.425 430.335 312.411 427.803 317.064 430.419 318.727 431.34 320.492 432.06 322.324 432.563 324.797 433.247 327.426 433.106 329.813 432.163L329.813 432.163C329.813 432.163 345.661 431.304 358.99 410.528 358.99 410.528 364.707 406.989 364.99 405.659L355.439 406.305C355.439 406.305 356.174 413.312 352.216 417.516 352.216 417.516 355.722 406.64 354.04 406.337 353.699 406.272 348.994 406.892 348.994 406.892 348.994 406.892 350.212 419.079 343.837 425.382 343.837 425.382 349.754 412.989 347.183 407.112L340.132 408.474C340.132 408.474 342.065 421.294 335.091 428.746 335.091 428.746 340.828 415.572 338.61 408.881L331.862 411.155C331.862 411.155 333.487 423.69 327.654 429.883 327.654 429.883 332.745 413.99 330.348 411.8 330.348 411.8 324.276 414.267 322.981 415.675 322.981 415.675 323.941 424.716 320.235 427.978 320.235 427.978 322.51 416.999 321.383 416.547 321.383 416.547 314.332 421.868 312.179 426.46 312.179 426.46 314.86 419.447 320.5 415.482 320.5 415.482 315.762 414.681 312.121 416.663 312.121 416.663 314.557 412.007 322.208 414.216 322.208 414.216 327.873 410.283 329.007 410.341 329.007 410.341 321.769 407.112 316.542 407.512 316.542 407.512 322.15 404.283 330.773 409.676L337.508 407.241C337.508 407.241 328.163 402.443 323.484 402.462 323.484 402.462 329.71 400.047 339.255 406.763L346.151 405.355C346.151 405.355 338.417 400.609 333.203 399.504 333.203 399.504 339.455 398.51 348.143 405.026L352.854 404.632C352.854 404.632 347.15 401.261 345.423 400.441 343.696 399.621 343.773 399.091 343.773 399.091 347.882 399.807 351.712 401.654 354.833 404.425 354.833 404.425 364.604 404.206 364.643 403.605Z" fill="#2073D9" fill-rule="evenodd"/><path d="M362.99 366.728C362.99 366.728 345.835 327.833 321.167 345.671 321.167 345.671 315.952 347.156 315.991 352.463 315.991 352.463 318.023 351.537 319.31 355.682 319.783 357.152 320.434 358.561 321.252 359.878 322.332 361.668 323.98 363.061 325.943 363.846L325.943 363.846C325.943 363.846 335.889 372.238 355.71 367.585 355.71 367.585 361.146 368.721 362.072 368.112L356.015 363.116C356.015 363.116 352.449 367.623 347.673 367.839 347.673 367.839 355.976 363.458 355.147 362.335 354.979 362.106 351.815 359.834 351.815 359.834 351.815 359.834 345.59 367.629 338.225 367.75 338.225 367.75 348.832 363.827 350.65 358.958L345.667 355.784C345.667 355.784 339.494 364.347 331.088 364.792 331.088 364.792 342.03 360.316 344.528 355.161L339.203 352.705C339.203 352.705 333.016 360.957 326.021 361.268 326.021 361.268 338.135 354.844 337.947 352.222 337.947 352.222 332.919 350.254 331.321 350.369 331.321 350.369 326.746 356.177 322.662 356.012 322.662 356.012 330.292 350.876 329.878 349.981 329.878 349.981 322.63 349.131 318.728 350.616 318.728 350.616 324.332 348.026 329.955 348.877 329.955 348.877 327.587 345.747 324.293 344.877 324.293 344.877 328.409 343.525 331.709 349.099 331.709 349.099 337.326 349.988 337.986 350.648 337.986 350.648 335.521 344.687 332.162 342.002 332.162 342.002 337.339 343.271 339.41 351.251L344.82 353.606C344.82 353.606 341.985 345.557 339.177 342.948 339.177 342.948 344.269 345.03 346.133 354.311L351.051 357.352C351.051 357.352 349.149 350.242 346.67 346.668 346.67 346.668 350.967 349.6 352.423 358.278L355.465 360.691C355.465 360.691 353.983 355.523 353.42 354.076 352.857 352.629 353.206 352.362 353.206 352.362 355.25 355.084 356.48 358.311 356.759 361.681 356.759 361.681 362.609 367.051 362.99 366.728Z" fill="#2073D9" fill-rule="evenodd"/><path d="M911.149 622.449C910.504 620.114 909.859 617.747 908.569 615.715 907.37 613.991 905.951 612.435 904.338 611.09 899.663 606.839 893.916 602.524 887.718 603.601 885.796 604.021 883.939 604.699 882.198 605.614 881.294 606.033 880.385 606.452 879.456 606.807 876.84 607.901 873.948 608.153 871.182 607.53 869.763 607.149 868.441 606.465 867.041 606.04 866.374 605.84 865.693 605.694 865.003 605.601 866.354 604.99 867.668 604.298 868.937 603.53 875.896 599.228 881.449 591.488 880.669 583.296 880.411 580.523 879.456 577.872 878.515 575.259 877.689 572.976 876.862 570.69 876.032 568.403 874.961 565.429 873.858 562.404 871.898 559.933 869.718 557.186 866.622 555.322 863.423 553.928 856.548 550.942 849.034 549.89 841.617 548.871L841.101 548.8 841.101 468.663C841.12 465.813 838.824 463.489 835.974 463.47 835.963 463.47 835.953 463.47 835.942 463.47L826.184 463.47C825.754 460.839 825.324 458.209 824.894 455.582 823.662 448.093 822.392 440.456 818.941 433.709 816.684 429.291 813.085 425.085 808.242 424.214 807.288 424.125 806.351 423.909 805.455 423.569 804.036 422.873 803.263 421.325 802.166 420.177 799.354 417.229 794.781 417.184 791.009 415.661 787.681 414.339 784.959 411.843 781.928 409.927 778.896 408.011 775.124 406.644 771.763 407.895 771.763 408.14 771.718 408.379 771.692 408.624L769.538 407.657C767.216 406.586 764.843 405.476 762.979 403.709 760.58 401.445 759.303 398.459 758.31 395.272 758.207 394.937 758.11 394.627 758.013 394.272 762.134 390.06 764.925 384.728 766.036 378.94 766.21 379.501 766.391 380.069 766.565 380.637 766.724 381.214 766.94 381.773 767.21 382.307 767.3 382.484 767.401 382.654 767.513 382.817 767.726 383.134 767.992 383.411 768.3 383.636 768.606 383.859 768.963 383.999 769.338 384.042 769.518 384.068 769.7 384.068 769.88 384.042 770.87 383.833 771.686 383.136 772.047 382.191 772.15 381.938 772.226 381.674 772.273 381.404 772.298 381.242 772.313 381.078 772.318 380.914 772.318 380.862 772.318 380.811 772.318 380.759 772.318 380.708 772.318 380.533 772.318 380.424 772.318 380.314 772.318 380.301 772.318 380.243 772.318 380.185 772.318 380.024 772.318 379.921L772.318 379.753C772.318 379.624 772.279 379.495 772.254 379.372 772.228 379.25 772.254 379.302 772.254 379.269 772.221 379.102 772.183 378.94 772.15 378.773 772.147 378.736 772.147 378.7 772.15 378.663L772.054 378.257 771.996 378.012 771.996 377.947 771.996 377.947C771.931 377.695 771.873 377.437 771.815 377.179 771.346 374.939 771.227 372.639 771.46 370.362 771.849 367.021 772.465 363.711 773.305 360.454L773.44 359.867 773.595 359.183C773.698 358.719 773.795 358.254 773.892 357.79L773.892 357.79C773.976 357.397 774.053 356.997 774.124 356.597 774.195 356.197 774.246 355.894 774.298 355.539 774.298 355.494 774.298 355.455 774.298 355.41 774.692 353.006 774.798 350.563 774.614 348.134L774.614 348.134C774.311 344.761 773.266 341.568 770.97 339.02 769.351 337.22 767.223 335.892 765.72 334.002 764.308 332.228 763.515 330.048 762.057 328.313 758.026 323.501 747.688 319.792 741.341 319.147 734.073 318.411 722.328 320.269 716.472 324.565 714.305 326.152 712.822 328.435 711.313 330.609 708.539 334.647 705.385 338.672 700.942 340.929 699.259 341.781 697.337 342.426 696.221 343.909 695.547 344.915 695.106 346.059 694.931 347.257 694.074 351.46 693.629 355.738 693.602 360.028 693.506 361.905 693.746 363.784 694.312 365.576 694.402 365.821 694.512 366.072 694.628 366.311L694.628 366.311C694.731 366.524 694.847 366.736 694.97 366.956L695.047 367.091C695.826 368.208 696.518 369.384 697.117 370.607 697.259 370.951 697.363 371.31 697.427 371.677 697.537 372.624 697.477 373.583 697.246 374.509L697.246 374.509C697.246 374.651 697.195 374.786 697.163 374.922L697.105 375.219C697.105 375.309 697.105 375.406 697.053 375.496 697.001 375.775 696.956 376.052 696.917 376.328 696.917 376.522 696.879 376.721 696.872 376.921 696.826 377.721 696.979 378.518 697.317 379.244 697.402 379.416 697.504 379.581 697.62 379.734 697.851 380.043 698.149 380.297 698.491 380.475 699.259 380.764 700.062 380.955 700.877 381.043 703.289 381.585 704.799 383.43 705.779 385.694 705.996 386.202 706.188 386.721 706.353 387.248 706.755 388.572 707.057 389.924 707.256 391.292 708.352 391.234 708.991 390.267 709.378 389.209 709.499 388.86 709.6 388.505 709.681 388.145 709.829 387.467 709.978 386.79 710.132 386.113 712.678 391.515 716.779 396.034 721.909 399.091 722.09 399.62 722.264 400.155 722.425 400.697 723.27 403.619 723.676 406.683 722.212 409.237 721.167 411.05 719.407 412.172 717.446 412.946 717.164 412.567 716.8 412.256 716.382 412.036 714.679 411.185 712.641 412.223 711.222 413.494 708.643 415.829 706.54 419.177 703.141 419.944 701.916 420.228 700.561 420.17 699.536 420.918 698.861 421.554 698.296 422.297 697.866 423.118 696.367 425.267 693.879 426.507 691.261 426.407 690.081 426.349 688.681 426.078 687.875 426.943 687.276 427.588 687.23 428.613 686.585 429.226 685.715 430.078 684.302 429.658 683.09 429.607 681.319 429.611 679.628 430.344 678.414 431.632 678.338 429.029 677.341 426.538 675.602 424.601 673.861 422.808 671.442 421.886 669.378 420.48 664.219 416.971 661.639 410.804 658.95 405.154 656.26 399.504 652.713 393.544 646.844 391.486 645.496 391.009 643.619 390.97 643.013 392.279 642.806 392.826 642.773 393.422 642.916 393.989 643.484 396.994 645.625 399.407 647.476 401.826 650.591 405.902 653.203 410.888 652.448 415.984 651.565 422.015 646.193 426.698 645.548 432.754 645.264 435.425 645.941 438.108 645.934 440.791 645.934 442.468 645.67 444.165 646.031 445.797 646.415 447.037 646.869 448.254 647.392 449.441 647.973 451.39 648.273 453.413 648.282 455.446 648.738 463.995 649.191 472.546 649.643 481.099 649.985 487.478 648.592 493.774 647.186 500.05 645.442 503.77 644.089 507.661 643.148 511.66 641.562 518.646 641.517 526.089 643.793 532.888 645.012 536.584 646.883 540.047 647.882 543.808 647.882 543.892 647.921 543.969 647.94 544.047 648.037 544.846 648.147 545.646 648.295 546.44 648.478 547.356 648.717 548.261 649.011 549.149 649.304 550.677 649.78 552.165 650.43 553.58 651.334 555.377 652.663 556.926 654.299 558.095 653.371 559.914 651.868 561.378 650.868 563.159 649.127 566.242 649.056 570.028 649.688 573.524 650.907 580.271 654.551 586.302 659.362 591.204 659.147 591.192 658.932 591.192 658.717 591.204 657.144 591.378 655.633 591.919 654.306 592.784 644.122 598.738 638.298 611.49 640.427 623.165 640.846 625.448 641.575 627.757 643.097 629.493 644.364 630.874 645.992 631.873 647.798 632.376 648.926 632.715 650.087 632.931 651.262 633.021 659.201 633.666 666.889 629.983 674.847 629.673 677.486 629.631 680.125 629.755 682.748 630.041 686.579 630.359 690.418 630.561 694.267 630.647 700.516 630.796 704.038 629.131 708.03 624.455 709.011 623.295 709.829 622.005 710.461 620.624 713.854 620.43 717.601 620.133 720.316 619.908L720.355 620.288C720.503 621.578 720.729 623.062 721.761 623.881 722.344 624.276 723.003 624.544 723.696 624.668 730.216 626.274 736.814 627.893 743.521 627.893 746.671 627.828 749.815 627.584 752.937 627.164L764.74 625.803C768.174 626.245 771.565 626.983 774.872 628.009 778.277 629.17 781.463 630.892 784.791 632.247 792.531 635.388 800.863 636.51 809.112 637.607 810.518 637.794 812.131 637.923 813.175 636.962 814.517 635.672 814.065 633.511 813.691 631.705 813.536 630.97 813.42 630.221 813.324 629.473 818.891 630.937 824.338 632.828 829.615 635.13L830.544 635.536C830.808 636.943 832.111 638.071 833.356 639.587 833.765 640.225 834.242 640.815 834.781 641.348 835.395 641.753 836.095 642.007 836.825 642.09 845.542 643.713 854.442 644.115 863.268 643.283 865.074 643.037 866.9 642.975 868.718 643.096 870.053 643.277 871.369 643.575 872.652 643.986L880.121 646.121C885.622 647.702 891.265 649.295 896.973 648.94 898.134 648.864 899.282 648.698 900.417 648.443 904.932 647.398 909.143 644.87 911.31 640.806 914.219 635.278 912.807 628.486 911.149 622.449ZM692.087 521.561C691.857 524.358 691.127 527.091 689.933 529.63 689.133 531.249 688.101 532.739 687.353 534.365 686.643 535.835 686.115 538.615 685.799 541.666 685.412 541.602 685.018 541.544 684.631 541.499 685.205 539.486 685.637 537.422 686.211 535.403 687.572 530.604 689.81 526.07 692.087 521.561Z" fill="#808080" fill-rule="evenodd"/><path d="M701.88 620.623C700.504 617.579 699.199 614.08 700.576 611.036 701.474 609.244 703.017 607.835 704.914 607.074 706.79 606.33 708.768 605.856 710.784 605.666 717.115 604.859 723.52 604.774 729.871 605.413 730.334 608.976 729.356 612.59 728.514 616.032 727.751 619.202 727.314 619.672 723.948 619.836 721.769 619.951 702.396 621.745 701.88 620.623Z" fill="#FBBEBE" fill-rule="evenodd"/><path d="M852 574C852 588.359 810.586 600 759.5 600 708.414 600 667 588.359 667 574 667 559.641 708.414 548 759.5 548 810.586 548 852 559.641 852 574Z" fill="#464353" fill-rule="evenodd"/><path d="M852 574C852 588.359 810.586 600 759.5 600 708.414 600 667 588.359 667 574 667 559.641 708.414 548 759.5 548 810.586 548 852 559.641 852 574Z" fill="#000000" fill-rule="evenodd" fill-opacity="0.101961"/><path d="M776.398 437.321C773.247 443.407 768.014 448.158 761.652 450.71 757.907 452.075 753.964 452.826 749.979 452.934 745.615 453.133 741.16 452.85 737.059 451.359 731.557 449.368 726.986 445.294 723.56 440.546 720.134 435.798 717.775 430.376 715.725 424.908 714.645 422.062 713.616 419.029 714.124 416.022 717.434 415.271 721.06 414.166 722.77 411.229 724.229 408.711 723.824 405.691 722.982 402.813 722.744 401.997 722.467 401.187 722.191 400.41 721.548 398.547 719.331 395.006 720.873 393.413 721.857 392.404 725.977 391.89 727.398 391.235 731.775 389.218 735.812 386.301 740.62 385.343 744.779 384.515 749.073 385.292 753.225 386.153 753.776 386.233 754.305 386.423 754.781 386.712 755.323 387.169 755.724 387.771 755.938 388.447 757.121 391.325 757.815 394.505 758.766 397.506 759.756 400.647 761.029 403.597 763.414 405.826 765.271 407.567 767.637 408.659 769.951 409.719L775.646 412.328C776.659 412.707 777.578 413.301 778.339 414.069 779.084 415.093 779.529 416.302 779.625 417.564 780.646 424.325 779.517 431.235 776.398 437.321Z" fill="#FBBEBE" fill-rule="evenodd"/><path d="M758.99 397.744C749.521 407.622 734.597 409.845 722.675 403.152 722.434 402.32 722.153 401.495 721.872 400.703 721.219 398.805 718.967 395.197 720.534 393.573 721.533 392.545 725.717 392.022 727.16 391.354 731.605 389.298 735.705 386.325 740.588 385.35 744.812 384.505 749.172 385.298 753.389 386.175 753.949 386.257 754.486 386.45 754.969 386.744 755.52 387.21 755.927 387.823 756.144 388.512 757.319 391.445 758.024 394.686 758.99 397.744Z" fill="#000000" fill-rule="evenodd" fill-opacity="0.101961"/><path d="M767 375.5C767 391.792 753.792 405 737.5 405 721.208 405 708 391.792 708 375.5 708 359.208 721.208 346 737.5 346 753.792 346 767 359.208 767 375.5Z" fill="#FBBEBE" fill-rule="evenodd"/><path d="M827.597 472.101 825.158 457.4C823.926 450.024 822.655 442.506 819.21 435.862 816.945 431.51 813.352 427.363 808.507 426.502 807.552 426.418 806.614 426.202 805.719 425.86 804.3 425.18 803.526 423.652 802.436 422.522 799.623 419.62 795.042 419.576 791.274 418.099 787.945 416.815 785.223 414.343 782.19 412.456 779.158 410.569 775.384 409.246 772.029 410.453 771.487 416.199 770.913 422.073 768.461 427.305 762.548 439.927 747.47 445.39 734.785 439.506 733.175 438.759 731.648 437.845 730.229 436.78 724.481 432.473 720.797 425.828 719.081 418.876 718.661 417.181 718.184 415.236 716.616 414.459 714.919 413.612 712.881 414.639 711.455 415.884 708.842 418.189 706.765 421.488 703.371 422.265 702.145 422.548 700.79 422.49 699.771 423.228 699.094 423.85 698.526 424.582 698.094 425.392 696.585 427.513 694.103 428.734 691.494 428.64 690.313 428.582 688.913 428.313 688.107 429.166 687.507 429.808 687.461 430.81 686.816 431.407 685.945 432.248 684.532 431.837 683.319 431.792 681.023 431.696 678.887 433.159 677.571 435.002 676.255 436.844 675.636 439.123 674.99 441.332 682.042 456.957 688.494 472.602 695.545 488.227 695.876 488.816 696.051 489.478 696.055 490.153 695.914 490.853 695.614 491.512 695.177 492.079 691.719 497.606 691.829 504.559 692.21 511.055 692.59 517.552 693.055 524.415 690.139 530.237 689.345 531.836 688.313 533.3 687.558 534.898 685.79 538.519 685.152 550.1 686.184 553.99L831.99 553.99C829.21 546.383 830.268 531.117 830.849 523.041 831.255 517.392 830.203 511.749 829.752 506.1 828.803 494.563 829.513 483.618 827.597 472.101Z" fill="#F86D70" fill-rule="evenodd"/><path d="M835.112 549.523C837.257 548.699 839.621 548.998 841.921 549.309 849.322 550.327 856.833 551.372 863.693 554.349 866.914 555.737 869.98 557.592 872.158 560.322 874.09 562.78 875.218 565.79 876.287 568.754L878.76 575.558C879.701 578.152 880.654 580.798 880.918 583.555 881.691 591.721 876.145 599.419 869.169 603.661 862.193 607.903 853.979 609.414 845.979 610.997 837.978 612.579 829.946 614.331 821.977 616.186 818.26 617.156 814.49 617.904 810.685 618.423 802.156 619.396 793.241 617.963 785.138 620.804 781.917 621.939 778.754 623.625 775.411 624.41 773.194 624.899 770.95 625.263 768.692 625.499L753.355 627.263C750.235 627.684 747.096 627.926 743.95 627.99 737.25 627.99 730.661 626.394 724.154 624.799 723.463 624.677 722.804 624.409 722.222 624.014 721.191 623.197 720.966 621.75 720.818 620.44 720.161 614.642 719.585 608.837 719.091 603.026 718.937 601.138 718.821 599.095 719.845 597.506 721.133 595.56 723.646 594.951 725.939 594.574 735.663 592.973 745.514 592.284 755.364 592.518 759.107 588.75 765.278 588.731 770.18 586.681 771.984 585.847 773.729 584.892 775.404 583.821 784.169 578.672 793.964 575.554 804.076 574.695 806.057 574.634 808.025 574.351 809.944 573.852 813.739 572.665 817.198 569.435 821.095 570.226 821.578 568.884 821.913 567.087 823.027 566.166 823.581 565.693 824.264 565.375 824.773 564.869 825.849 563.773 825.945 562.047 825.784 560.517 825.623 558.986 825.263 557.416 825.656 555.925 825.819 555.36 826.059 554.821 826.371 554.323 828.309 550.911 831.228 549.199 835.112 549.523Z" fill="#464353" fill-rule="evenodd"/><path d="M835.112 549.523C837.257 548.699 839.621 548.998 841.921 549.309 849.322 550.327 856.833 551.372 863.693 554.349 866.914 555.737 869.98 557.592 872.158 560.322 874.09 562.78 875.218 565.79 876.287 568.754L878.76 575.558C879.701 578.152 880.654 580.798 880.918 583.555 881.691 591.721 876.145 599.419 869.169 603.661 862.193 607.903 853.979 609.414 845.979 610.997 837.978 612.579 829.946 614.331 821.977 616.186 818.26 617.156 814.49 617.904 810.685 618.423 802.156 619.396 793.241 617.963 785.138 620.804 781.917 621.939 778.754 623.625 775.411 624.41 773.194 624.899 770.95 625.263 768.692 625.499L753.355 627.263C750.235 627.684 747.096 627.926 743.95 627.99 737.25 627.99 730.661 626.394 724.154 624.799 723.463 624.677 722.804 624.409 722.222 624.014 721.191 623.197 720.966 621.75 720.818 620.44 720.161 614.642 719.585 608.837 719.091 603.026 718.937 601.138 718.821 599.095 719.845 597.506 721.133 595.56 723.646 594.951 725.939 594.574 735.663 592.973 745.514 592.284 755.364 592.518 759.107 588.75 765.278 588.731 770.18 586.681 771.984 585.847 773.729 584.892 775.404 583.821 784.169 578.672 793.964 575.554 804.076 574.695 806.057 574.634 808.025 574.351 809.944 573.852 813.739 572.665 817.198 569.435 821.095 570.226 821.578 568.884 821.913 567.087 823.027 566.166 823.581 565.693 824.264 565.375 824.773 564.869 825.849 563.773 825.945 562.047 825.784 560.517 825.623 558.986 825.263 557.416 825.656 555.925 825.819 555.36 826.059 554.821 826.371 554.323 828.309 550.911 831.228 549.199 835.112 549.523Z" fill="#000000" fill-rule="evenodd" fill-opacity="0.0509804"/><path d="M707.971 624.534C703.979 629.108 700.465 630.741 694.217 630.594 690.373 630.505 686.535 630.307 682.7 630.001 680.079 629.721 677.443 629.599 674.807 629.637 666.85 629.944 659.17 633.547 651.232 632.916 650.058 632.825 648.898 632.611 647.769 632.278 645.979 631.785 644.361 630.811 643.094 629.465 641.572 627.762 640.844 625.504 640.425 623.271 638.303 611.828 644.119 599.364 654.301 593.54 655.63 592.691 657.14 592.16 658.712 591.99 660.254 591.984 661.778 592.315 663.174 592.96L663.271 592.998C667.408 594.682 671.164 597.162 674.323 600.295 674.803 600.838 675.375 601.294 676.013 601.641 676.65 601.879 677.325 602.004 678.005 602.011L686.479 602.541C687.914 602.583 689.341 602.778 690.734 603.121 692.271 603.652 693.766 604.291 695.21 605.035 699.769 607.05 704.824 607.586 709.751 608.364 710.225 608.391 710.679 608.57 711.04 608.875 711.237 609.116 711.374 609.4 711.44 609.704 712.837 614.911 711.537 620.463 707.971 624.534Z" fill="#3F3D56" fill-rule="evenodd"/><path d="M662.991 592.991C659.739 596.073 656.918 599.574 654.604 603.401 650.89 609.716 648.556 616.736 647.754 624.005 647.45 626.657 647.427 629.333 647.684 631.99 645.912 631.499 644.312 630.53 643.06 629.191 641.555 627.501 640.835 625.259 640.42 623.043 638.322 611.683 644.074 599.31 654.145 593.529 655.459 592.686 656.952 592.159 658.507 591.99 660.032 591.984 661.539 592.313 662.92 592.953Z" fill="#000000" fill-rule="evenodd" fill-opacity="0.101961"/><path d="M827.989 608.199C832.777 608.07 838.151 607.832 841.669 611.014 845.024 614.021 845.467 618.983 845.688 623.45L845.942 628.636C846.02 630.217 846.085 631.849 845.441 633.315 844.294 635.886 841.148 637.126 838.275 636.978 835.402 636.83 832.764 635.59 830.139 634.472 823.011 631.443 815.59 629.136 807.99 627.588 808.238 624.002 808.65 620.433 809.228 616.881 809.625 614.42 809.691 610.3 811.358 608.256 813.124 606.097 815.423 607.267 817.82 607.665 821.184 608.172 824.59 608.35 827.989 608.199Z" fill="#FBBEBE" fill-rule="evenodd"/><path d="M702.627 556.311C702.627 556.959 701.618 556.311 701.528 555.617 700.821 550.373 696.693 546.049 691.884 543.949 687.074 541.848 681.596 541.738 676.389 542.237 668.512 542.989 659.704 546.03 656.791 553.452 656.11 555.19 655.801 557.07 654.965 558.736 654.04 560.564 652.529 562.022 651.526 563.799 649.796 566.871 649.725 570.638 650.349 574.112 652.027 583.382 658.315 591.311 665.934 596.802 673.553 602.292 682.458 605.572 691.337 608.529 714.816 616.336 738.904 622.137 763.347 625.869 767.308 626.472 771.307 627.03 775.101 628.313 778.495 629.461 781.672 631.179 784.989 632.527 792.705 635.652 801.005 636.767 809.228 637.862 810.63 638.044 812.237 638.174 813.273 637.214 814.61 635.963 814.166 633.785 813.787 631.989 812.39 625.167 813.557 618.066 817.06 612.062 818.435 609.728 820.223 607.336 819.966 604.632 819.657 601.482 816.545 599.252 813.446 598.746 810.347 598.241 807.197 598.986 804.085 599.395 803.011 599.537 801.841 599.628 800.87 599.077 800.408 598.762 799.988 598.387 799.623 597.962 795.225 593.684 788.594 592.75 783.202 595.648 782.051 596.296 780.308 594.85 779.113 594.306L765.604 588.128C750.07 581.042 734.46 573.924 718.026 569.438 716.715 569.178 715.468 568.656 714.361 567.902 713.544 567.254 712.96 566.372 712.207 565.653 710.568 564.09 708.285 563.468 706.318 562.359 704.35 561.251 702.164 558.535 702.627 556.311Z" fill="#464353" fill-rule="evenodd"/><path d="M911.289 640.913C909.135 644.923 904.956 647.421 900.47 648.451 899.342 648.705 898.201 648.87 897.047 648.94 891.375 649.294 885.773 647.717 880.306 646.159L872.885 644.048C871.609 643.644 870.3 643.352 868.975 643.172 867.17 643.052 865.358 643.114 863.566 643.359 854.794 644.179 845.951 643.78 837.288 642.175 836.563 642.096 835.867 641.847 835.256 641.448 834.721 640.92 834.246 640.336 833.84 639.703 831.821 637.264 829.648 635.841 832.039 632.623 833.417 630.756 835.974 629.823 837.044 627.68 838.115 625.536 837.429 622.492 836.794 620.278 835.929 617.22 833.083 615.901 832.064 613.094 831.302 610.977 832.584 608.518 834.513 607.366 836.442 606.214 838.826 606.124 841.05 606.42 843.274 606.716 845.453 607.347 847.69 607.52 854.266 608.048 860.989 604.643 867.302 606.561 868.693 606.986 870.007 607.662 871.417 608.035 874.166 608.653 877.038 608.404 879.64 607.321 880.563 606.973 881.466 606.555 882.364 606.143 884.094 605.238 885.937 604.569 887.844 604.154 894.003 603.092 899.714 607.372 904.36 611.55 905.956 612.879 907.366 614.416 908.558 616.12 909.84 618.128 910.519 620.464 911.122 622.769 912.82 628.735 914.224 635.442 911.289 640.913Z" fill="#3F3D56" fill-rule="evenodd"/><path d="M911.264 640.535C909.083 644.501 904.85 646.971 900.305 647.99 902.071 644.622 902.87 640.845 902.61 637.066 902.221 631.012 899.507 625.307 896.046 620.278 893.917 617.182 891.496 614.289 888.814 611.639 886.749 609.602 884.211 607.985 881.99 606.12 883.743 605.224 885.61 604.563 887.541 604.152 893.78 603.102 899.565 607.336 904.272 611.467 905.889 612.782 907.317 614.302 908.525 615.987 909.823 617.973 910.511 620.284 911.122 622.564 912.816 628.49 914.238 635.124 911.264 640.535Z" fill="#000000" fill-rule="evenodd" fill-opacity="0.101961"/><path d="M716.819 327.504C714.653 329.082 713.17 331.349 711.662 333.525 708.883 337.546 705.737 341.56 701.295 343.801 699.612 344.652 697.691 345.295 696.576 346.775 695.914 347.777 695.484 348.916 695.318 350.108 694.468 354.298 694.023 358.561 693.99 362.838 693.99 364.969 694.081 367.164 695.015 369.1 695.899 370.919 697.491 372.458 697.82 374.439 698.071 375.985 697.504 377.524 697.304 379.077 697.104 380.629 697.452 382.467 698.877 383.208 699.645 383.499 700.446 383.688 701.263 383.773 705.55 384.734 706.988 389.801 707.639 393.99 709.096 393.906 709.753 392.223 710.056 390.853L714.524 370.841C715.008 368.671 715.814 366.158 717.96 365.398 719.398 364.897 720.971 365.365 722.473 365.495 728.372 365.982 733.362 361.39 739.132 360.123 740.979 359.75 742.868 359.625 744.748 359.753 749.299 359.981 754.592 361.864 755.559 366.145 755.721 366.84 755.817 367.671 756.462 368.015 757.107 368.359 757.751 368.067 758.46 368.015 761.349 367.723 763.051 370.997 763.882 373.673L766.913 383.416C767.364 384.89 768.125 386.624 769.711 386.813 771.174 386.995 772.418 385.598 772.637 384.214 772.857 382.831 772.38 381.396 772.064 380.006 770.639 373.608 772.818 367.06 774.146 360.65 775.474 354.239 775.713 346.873 771.258 341.936 769.64 340.15 767.512 338.819 766.003 336.935 764.598 335.168 763.805 332.999 762.348 331.265 758.319 326.478 747.984 322.782 741.647 322.171 734.432 321.372 722.673 323.224 716.819 327.504Z" fill="#3F3D56" fill-rule="evenodd"/><path d="M770.033 382.21C768.435 382.014 767.668 380.253 767.213 378.799 766.194 375.533 765.177 372.271 764.158 369.015 763.32 366.321 761.604 363.033 758.692 363.333 758.042 363.405 757.275 363.673 756.677 363.333 756.08 362.994 755.93 362.153 755.768 361.455 754.793 357.15 749.457 355.265 744.868 355.037 742.973 354.912 741.07 355.037 739.207 355.408 733.358 356.713 728.36 361.279 722.413 360.803 720.88 360.679 719.294 360.209 717.864 360.711 715.674 361.468 714.887 363.973 714.4 366.177L709.896 386.267C709.59 387.65 708.927 389.339 707.459 389.417 706.809 385.217 705.353 380.129 701.031 379.164 700.209 379.073 699.402 378.883 698.626 378.596 698.061 378.287 697.618 377.792 697.372 377.194 697.255 377.801 697.118 378.407 697.04 379.014 696.845 380.566 697.19 382.419 698.626 383.162 699.4 383.454 700.208 383.645 701.031 383.73 705.353 384.695 706.802 389.783 707.459 393.99 708.927 393.905 709.59 392.216 709.896 390.839L714.4 370.743C714.887 368.565 715.7 366.04 717.864 365.277 719.313 364.775 720.899 365.245 722.413 365.375 728.36 365.864 733.391 361.253 739.207 359.981 741.061 359.608 742.956 359.483 744.842 359.609 749.431 359.837 754.767 361.729 755.742 366.027 755.904 366.725 756.001 367.56 756.651 367.906 757.301 368.251 757.951 367.958 758.666 367.906 761.578 367.612 763.294 370.9 764.132 373.587 765.146 376.853 766.164 380.114 767.187 383.371 767.642 384.852 768.409 386.593 770.007 386.782 771.483 386.965 772.737 385.563 772.958 384.173 773.058 383.004 772.926 381.827 772.568 380.71 772.096 381.671 771.101 382.261 770.033 382.21Z" fill-rule="evenodd"/><path d="M697.95 369.426C697.61 367.402 695.95 365.829 695.05 363.971 694.471 362.718 694.137 361.367 694.063 359.99 694.063 360.733 693.997 361.476 693.99 362.226 693.99 364.403 694.083 366.646 695.05 368.623 695.79 370.13 697.01 371.457 697.624 372.99 697.947 371.831 698.058 370.624 697.95 369.426Z" fill-rule="evenodd"/><path d="M774.257 356.026C773.212 361.642 771.581 367.361 772.086 372.99 772.414 368.836 773.493 364.656 774.257 360.534 774.894 357.406 775.118 354.191 774.924 350.99 774.798 352.683 774.576 354.365 774.257 356.026Z" fill-rule="evenodd"/><path d="M699.885 500.193C699.106 513.034 689.716 523.645 686.139 535.995 685.249 539.086 684.714 542.293 683.438 545.235 680.86 551.152 675.556 555.445 669.904 558.472 667.842 559.667 665.586 560.49 663.241 560.903 657.96 561.522 652.849 558.795 650.409 554.055 648.933 551.048 648.727 547.589 647.831 544.356 646.832 540.625 644.963 537.185 643.745 533.519 641.502 526.775 641.547 519.39 643.101 512.459 644.572 506.431 646.901 500.647 650.016 495.285 650.467 494.489 650.924 493.701 651.395 492.918 652.725 490.656 654.217 488.495 655.861 486.452 659.728 481.777 664.697 478.182 669.614 474.638 669.99 474.328 670.43 474.107 670.903 473.992L670.981 473.992C671.535 473.972 672.085 474.102 672.573 474.367 679.392 477.325 685.938 480.882 692.132 484.997 694.349 486.478 697.849 488.133 699.009 490.655 700.169 493.177 700.053 497.451 699.885 500.193Z" fill="#FBBEBE" fill-rule="evenodd"/><path d="M674.842 441.14C674.208 441.803 673.716 442.589 673.397 443.449 668.135 455.3 665.026 467.993 664.217 480.933 664.232 481.564 664.086 482.189 663.794 482.748 663.507 483.12 663.186 483.466 662.837 483.783 661.557 485.298 661.75 487.564 663.267 488.843 663.326 488.893 663.387 488.941 663.449 488.987 664.523 486.964 667.095 486.307 669.38 486.131 680.324 485.266 691.014 490.353 701.99 489.969 701.216 487.295 700.102 484.726 699.471 482.02 696.678 470.004 703.644 456.922 699.373 445.349 698.52 443.033 697.095 440.756 694.849 439.741 693.919 439.366 692.946 439.108 691.951 438.973 689.178 438.472 683.657 436.332 680.975 437.191 679.985 437.51 679.595 438.44 678.775 438.999 677.557 439.799 675.904 440.079 674.842 441.14Z" fill="#F86D70" fill-rule="evenodd"/><path d="M679.066 548.595C675.711 554.335 669.631 557.894 663.026 557.986 661.267 558.032 659.519 557.708 657.893 557.034 653.793 555.209 651.476 550.692 650.617 546.252 649.757 541.813 650.026 537.231 649.417 532.746 648.929 529.174 647.89 525.705 647.351 522.139 646.029 513.318 648.634 504.607 650.488 495.825 650.937 495.029 651.393 494.24 651.861 493.457 653.185 491.193 654.671 489.03 656.308 486.985 660.157 482.306 665.104 478.707 670 475.161L664.867 475.161C665.259 474.872 665.809 474.958 666.096 475.353 666.186 475.478 666.242 475.623 666.259 475.776 666.766 480.306 673.099 484.836 674.478 489.237 675.332 491.942 676.358 494.596 677.045 497.353 677.586 499.7 677.997 502.077 678.277 504.471 679.188 511.171 680.095 517.859 680.997 524.534 682.133 532.681 683.108 541.489 679.066 548.595Z" fill="#000000" fill-rule="evenodd" fill-opacity="0.101961"/><path d="M670.41 463.307 676.637 443.712C677.567 440.779 678.509 437.801 678.618 434.72 678.728 431.639 677.921 428.408 675.772 426.207 674.03 424.427 671.617 423.508 669.552 422.116 664.389 418.627 661.808 412.516 659.117 406.891 656.426 401.265 652.883 395.381 647.01 393.296 645.655 392.817 643.784 392.778 643.177 394.079 642.967 394.621 642.933 395.214 643.08 395.776 643.648 398.766 645.784 401.155 647.643 403.544 650.76 407.59 653.367 412.542 652.618 417.604 651.728 423.599 646.359 428.247 645.713 434.273 645.429 436.928 646.107 439.588 646.1 442.262 646.1 443.919 645.829 445.609 646.197 447.227 646.579 448.478 647.034 449.706 647.559 450.904 648.134 452.839 648.433 454.846 648.45 456.866L649.811 482.346C650.547 496.128 643.093 509.534 645.145 523.129 645.688 526.696 646.733 530.166 647.223 533.739 647.869 538.225 647.565 542.802 648.43 547.249 649.295 551.696 651.657 556.208 655.748 558.034 657.384 558.708 659.143 559.032 660.911 558.986 667.554 558.894 673.669 555.334 677.044 549.592 681.109 542.472 680.128 533.674 679.019 525.556L676.282 505.489C676.001 503.094 675.587 500.716 675.043 498.368 674.359 495.61 673.327 492.956 672.462 490.25 669.694 481.401 667.622 472.098 670.41 463.307Z" fill="#FBBEBE" fill-rule="evenodd"/><path d="M835.889 465C838.712 465 841 465 841 465L841 557C841 557 838.712 557 835.889 557L703.111 557C700.288 557 698 557 698 557L698 465C698 465 700.288 465 703.111 465Z" fill="#3F3D56" fill-rule="evenodd"/><path d="M835.889 465C838.712 465 841 465 841 465L841 557C841 557 838.712 557 835.889 557L703.111 557C700.288 557 698 557 698 557L698 465C698 465 700.288 465 703.111 465Z" fill="#000000" fill-rule="evenodd" fill-opacity="0.2"/><path d="M773 511C773 513.209 771.209 515 769 515 766.791 515 765 513.209 765 511 765 508.791 766.791 507 769 507 771.209 507 773 508.791 773 511Z" fill="#FFFFFF" fill-rule="evenodd"/><path d="M411 308 557 308 557 364 411 364Z" fill="#2073D9" fill-rule="evenodd"/><path d="M643.237 308C647.525 308 651 308 651 308L651 364C651 364 647.525 364 643.237 364L418.763 364C414.476 364 411 364 411 364L411 308C411 308 414.476 308 418.763 308Z" stroke="#3F3D56" stroke-width="5.80535" stroke-miterlimit="8" fill="none" fill-rule="evenodd"/><path d="M542.63 333.038C541.355 326.953 535.117 322.999 528.696 324.208 525.159 324.874 522.135 327.03 520.478 330.065 515.27 330.586 511.494 335.01 512.043 339.946 512.553 344.531 516.642 348.006 521.506 347.99L542.08 347.99C546.457 347.98 549.997 344.61 549.99 340.462 550.008 336.527 546.774 333.266 542.63 333.038ZM533.535 337.464 533.535 343.161 528.467 343.161 528.467 337.464 523.091 337.464 531.001 329.96 538.911 337.464Z" fill="#FFFFFF" fill-rule="evenodd"/></g></svg>